<svg width="724" height="248" viewBox="0 0 724 248" fill="none" xmlns="http://www.w3.org/2000/svg">
<path d="M1 247V13.4142L13.4176 1H722.694L722.999 247H1Z" fill="#F8F8F8" stroke="black" stroke-width="2"/>
<path d="M70.552 129.312C79.528 129.312 81.016 126.288 81.016 123.336V123C81.016 119.448 78.304 117.816 71.584 117.696L68.584 117.648C64.936 117.576 64.456 116.88 64.456 116.112C64.456 115.344 64.768 114.576 69.088 114.576H69.472C74.152 114.576 74.512 116.04 74.632 116.712H80.44V116.472C80.44 113.784 78.52 110.832 70.072 110.832H68.416C60.28 110.832 58.696 113.616 58.696 116.28V116.496C58.696 119.28 60.736 121.536 67.408 121.728L70.48 121.8C74.608 121.92 75.16 122.568 75.16 123.6C75.16 124.56 74.632 125.496 69.928 125.496H69.592C64.984 125.496 64.36 123.744 64.288 122.664H58.456V122.928C58.456 125.28 59.536 129.312 68.896 129.312H70.552ZM88.0347 111.144H82.6827V129H88.0347V111.144ZM100.668 129.36C108.636 129.36 109.908 125.664 109.908 122.688V122.256C109.908 119.328 108.54 115.728 100.668 115.728H98.9639C91.4759 115.728 89.6999 119.28 89.6999 122.256V122.688C89.6999 125.664 91.4999 129.36 98.9879 129.36H100.668ZM99.8279 125.88C96.1799 125.88 95.1719 124.056 95.1719 122.544V122.424C95.1719 120.792 96.1799 119.16 99.8279 119.16H99.8519C103.452 119.16 104.484 120.816 104.484 122.424V122.544C104.484 124.056 103.476 125.88 99.8279 125.88ZM120.5 129L123.668 120.456L126.836 129H132.5L137.492 116.088H132.5L129.644 124.344L126.644 116.088H121.028L118.124 124.344L115.172 116.088H109.604L114.956 129H120.5ZM157.849 110.832C146.545 110.832 145.273 116.472 145.273 119.664V120.384C145.273 123.528 146.545 129.312 157.849 129.312H158.881C170.137 129.312 171.433 123.528 171.433 120.384V119.664C171.433 116.472 170.113 110.832 158.881 110.832H157.849ZM165.577 120.168C165.577 122.232 164.353 124.968 158.353 124.968C152.305 124.968 151.129 122.16 151.129 120.12V119.832C151.129 117.792 152.209 115.152 158.353 115.152C164.401 115.152 165.577 117.792 165.577 119.832V120.168ZM178.55 122.328C178.55 120.672 179.534 119.208 181.334 119.208H181.358C183.374 119.208 184.094 120.648 184.094 122.304H189.254V121.56C189.254 118.224 187.742 115.8 183.998 115.8H183.734C180.518 115.8 178.958 117.648 178.502 118.368V116.088H173.198V129H178.55V122.328ZM190.847 111.144V129H195.791C195.863 128.4 195.959 127.68 196.127 127.176C196.631 127.68 198.815 129.312 202.511 129.312H202.919C208.655 129.312 210.983 126.192 210.983 122.712V122.256C210.983 118.728 208.943 115.776 203.087 115.776H202.655C198.791 115.776 196.775 117.432 196.199 117.888V111.144H190.847ZM196.199 122.448C196.199 120.792 197.663 119.112 200.855 119.112H200.999C204.479 119.112 205.511 120.792 205.511 122.448V122.544C205.511 124.104 204.479 125.904 200.999 125.904H200.855C197.711 125.904 196.199 124.152 196.199 122.544V122.448Z" fill="black"/>
<path d="M60.28 72H86C95.64 72 98.32 68.12 98.32 63.44V62.88C98.32 57.64 93.96 55.92 91.92 55.4C93.36 54.96 96.64 53.48 96.64 49.6V49.04C96.64 45.52 94.28 42.24 85.76 42.24H60.28V72ZM84.16 48.52C86.76 48.52 87.4 49.64 87.4 50.88V50.96C87.4 52.16 86.76 53.36 84.16 53.36H69.6V48.52H84.16ZM84.96 59.68C88.04 59.68 88.64 61.16 88.64 62.44V62.6C88.64 63.8 88.04 65.52 84.96 65.52H69.6V59.68H84.96ZM125.136 59.84H113.856L119.376 48.68L125.136 59.84ZM131.376 72H141.416L125.496 42.24H113.416L98.3756 72H107.856L110.536 66.56H128.576L131.376 72ZM160.6 72.52C175.56 72.52 178.04 67.48 178.04 62.56V62C178.04 56.08 173.52 53.36 162.32 53.16L157.32 53.08C151.24 52.96 150.44 51.8 150.44 50.52C150.44 49.24 150.96 47.96 158.16 47.96H158.8C166.6 47.96 167.2 50.4 167.4 51.52H177.08V51.12C177.08 46.64 173.88 41.72 159.8 41.72H157.04C143.48 41.72 140.84 46.36 140.84 50.8V51.16C140.84 55.8 144.24 59.56 155.36 59.88L160.48 60C167.36 60.2 168.28 61.28 168.28 63C168.28 64.6 167.4 66.16 159.56 66.16H159C151.32 66.16 150.28 63.24 150.16 61.44H140.44V61.88C140.44 65.8 142.24 72.52 157.84 72.52H160.6ZM190.538 42.24H181.218V72H190.538V42.24ZM215.445 72.52C232.445 72.52 235.405 64.2 235.405 60.44V60H225.525C225.285 60.68 224.325 65.28 214.685 65.28C206.005 65.28 203.645 60.64 203.645 57.12V56.64C203.645 52.92 205.685 48.92 214.605 48.92C224.045 48.92 225.245 53.08 225.485 53.88H235.365V53.44C235.365 49.96 232.685 41.72 215.445 41.72H213.805C196.205 41.72 193.885 51.04 193.885 56.44V57.6C193.885 62.88 196.565 72.52 213.805 72.52H215.445Z" fill="#C4C4C4"/>
<path d="M64.688 177.096C66.336 177.096 67.808 176.536 68.8 175.448L68.048 174.696C67.136 175.64 66.016 176.04 64.736 176.04C62.032 176.04 60 174.056 60 171.4C60 168.744 62.032 166.76 64.736 166.76C66.016 166.76 67.136 167.16 68.048 168.088L68.8 167.336C67.808 166.248 66.336 165.704 64.704 165.704C61.328 165.704 58.832 168.12 58.832 171.4C58.832 174.68 61.328 177.096 64.688 177.096ZM75.503 168.52C74.175 168.52 72.927 168.936 72.079 169.656L72.591 170.504C73.279 169.896 74.303 169.512 75.391 169.512C76.959 169.512 77.775 170.296 77.775 171.736V172.248H75.103C72.687 172.248 71.855 173.336 71.855 174.632C71.855 176.088 73.023 177.08 74.927 177.08C76.319 177.08 77.311 176.552 77.823 175.688V177H78.911V171.784C78.911 169.608 77.679 168.52 75.503 168.52ZM75.103 176.184C73.759 176.184 72.975 175.576 72.975 174.6C72.975 173.736 73.503 173.096 75.135 173.096H77.775V174.472C77.327 175.576 76.383 176.184 75.103 176.184ZM85.8525 177.08C88.0445 177.08 89.3245 176.136 89.3245 174.68C89.3245 171.448 83.8685 173.16 83.8685 170.888C83.8685 170.088 84.5405 169.496 86.0605 169.496C86.9245 169.496 87.8045 169.704 88.5405 170.216L89.0365 169.304C88.3325 168.824 87.1485 168.52 86.0605 168.52C83.9165 168.52 82.7325 169.544 82.7325 170.92C82.7325 174.248 88.1885 172.52 88.1885 174.712C88.1885 175.544 87.5325 176.088 85.9325 176.088C84.7485 176.088 83.6125 175.672 82.9405 175.144L82.4285 176.04C83.1165 176.632 84.4605 177.08 85.8525 177.08ZM97.0566 175.672C96.7366 175.96 96.2726 176.104 95.8086 176.104C94.8646 176.104 94.3526 175.56 94.3526 174.568V169.544H96.9126V168.584H94.3526V166.744H93.2166V168.584H91.7126V169.544H93.2166V174.632C93.2166 176.184 94.0966 177.08 95.6806 177.08C96.3366 177.08 97.0086 176.888 97.4566 176.488L97.0566 175.672ZM110.352 177.08C112.816 177.08 114.624 175.288 114.624 172.792C114.624 170.296 112.816 168.52 110.352 168.52C107.888 168.52 106.064 170.296 106.064 172.792C106.064 175.288 107.888 177.08 110.352 177.08ZM110.352 176.072C108.56 176.072 107.216 174.76 107.216 172.792C107.216 170.824 108.56 169.512 110.352 169.512C112.144 169.512 113.472 170.824 113.472 172.792C113.472 174.76 112.144 176.072 110.352 176.072ZM124.991 168.584V173C124.991 174.92 123.887 176.056 122.127 176.056C120.527 176.056 119.599 175.144 119.599 173.352V168.584H118.463V173.464C118.463 175.88 119.871 177.08 122.015 177.08C123.359 177.08 124.447 176.488 125.039 175.464V177H126.127V168.584H124.991ZM134.941 175.672C134.621 175.96 134.157 176.104 133.693 176.104C132.749 176.104 132.237 175.56 132.237 174.568V169.544H134.797V168.584H132.237V166.744H131.101V168.584H129.597V169.544H131.101V174.632C131.101 176.184 131.981 177.08 133.565 177.08C134.221 177.08 134.893 176.888 135.341 176.488L134.941 175.672ZM147.741 168.52C146.413 168.52 145.165 168.936 144.317 169.656L144.829 170.504C145.517 169.896 146.541 169.512 147.629 169.512C149.197 169.512 150.013 170.296 150.013 171.736V172.248H147.341C144.925 172.248 144.093 173.336 144.093 174.632C144.093 176.088 145.261 177.08 147.165 177.08C148.557 177.08 149.549 176.552 150.061 175.688V177H151.149V171.784C151.149 169.608 149.917 168.52 147.741 168.52ZM147.341 176.184C145.997 176.184 145.213 175.576 145.213 174.6C145.213 173.736 145.741 173.096 147.373 173.096H150.013V174.472C149.565 175.576 148.621 176.184 147.341 176.184ZM162.709 170.232V168.584H161.621V177H162.757V172.712C162.757 170.728 163.829 169.608 165.589 169.608C165.669 169.608 165.765 169.624 165.861 169.624V168.52C164.309 168.52 163.237 169.112 162.709 170.232ZM172.447 168.52C171.119 168.52 169.871 168.936 169.023 169.656L169.535 170.504C170.223 169.896 171.247 169.512 172.335 169.512C173.903 169.512 174.719 170.296 174.719 171.736V172.248H172.047C169.631 172.248 168.799 173.336 168.799 174.632C168.799 176.088 169.967 177.08 171.871 177.08C173.263 177.08 174.255 176.552 174.767 175.688V177H175.855V171.784C175.855 169.608 174.623 168.52 172.447 168.52ZM172.047 176.184C170.703 176.184 169.919 175.576 169.919 174.6C169.919 173.736 170.447 173.096 172.079 173.096H174.719V174.472C174.271 175.576 173.327 176.184 172.047 176.184ZM187.116 165.128V170.184C186.412 169.096 185.26 168.52 183.916 168.52C181.516 168.52 179.724 170.248 179.724 172.792C179.724 175.336 181.516 177.08 183.916 177.08C185.308 177.08 186.476 176.472 187.164 175.336V177H188.252V165.128H187.116ZM184.012 176.072C182.22 176.072 180.876 174.76 180.876 172.792C180.876 170.824 182.22 169.512 184.012 169.512C185.788 169.512 187.132 170.824 187.132 172.792C187.132 174.76 185.788 176.072 184.012 176.072ZM193.591 166.744C194.071 166.744 194.423 166.376 194.423 165.912C194.423 165.48 194.055 165.128 193.591 165.128C193.127 165.128 192.759 165.496 192.759 165.928C192.759 166.376 193.127 166.744 193.591 166.744ZM193.015 177H194.151V168.584H193.015V177ZM201.856 168.52C200.528 168.52 199.28 168.936 198.432 169.656L198.944 170.504C199.632 169.896 200.656 169.512 201.744 169.512C203.312 169.512 204.128 170.296 204.128 171.736V172.248H201.456C199.04 172.248 198.208 173.336 198.208 174.632C198.208 176.088 199.376 177.08 201.28 177.08C202.672 177.08 203.664 176.552 204.176 175.688V177H205.264V171.784C205.264 169.608 204.032 168.52 201.856 168.52ZM201.456 176.184C200.112 176.184 199.328 175.576 199.328 174.6C199.328 173.736 199.856 173.096 201.488 173.096H204.128V174.472C203.68 175.576 202.736 176.184 201.456 176.184ZM214.238 168.52C212.782 168.52 211.646 169.112 211.038 170.136V168.584H209.95V177H211.086V172.584C211.086 170.664 212.222 169.544 214.03 169.544C215.63 169.544 216.558 170.456 216.558 172.232V177H217.694V172.12C217.694 169.704 216.286 168.52 214.238 168.52ZM222.954 166.744C223.434 166.744 223.786 166.376 223.786 165.912C223.786 165.48 223.418 165.128 222.954 165.128C222.49 165.128 222.122 165.496 222.122 165.928C222.122 166.376 222.49 166.744 222.954 166.744ZM222.378 177H223.514V168.584H222.378V177ZM232.307 175.672C231.987 175.96 231.523 176.104 231.059 176.104C230.115 176.104 229.603 175.56 229.603 174.568V169.544H232.163V168.584H229.603V166.744H228.467V168.584H226.963V169.544H228.467V174.632C228.467 176.184 229.347 177.08 230.931 177.08C231.587 177.08 232.259 176.888 232.707 176.488L232.307 175.672ZM243.422 172.792C243.422 170.264 241.71 168.52 239.342 168.52C236.974 168.52 235.23 170.296 235.23 172.792C235.23 175.288 237.022 177.08 239.646 177.08C240.974 177.08 242.142 176.6 242.894 175.704L242.254 174.968C241.614 175.704 240.702 176.072 239.678 176.072C237.838 176.072 236.494 174.904 236.366 173.144H243.406C243.406 173.016 243.422 172.888 243.422 172.792ZM239.342 169.496C240.99 169.496 242.19 170.648 242.334 172.296H236.366C236.51 170.648 237.71 169.496 239.342 169.496ZM256.562 177.08C259.026 177.08 260.834 175.288 260.834 172.792C260.834 170.296 259.026 168.52 256.562 168.52C254.098 168.52 252.274 170.296 252.274 172.792C252.274 175.288 254.098 177.08 256.562 177.08ZM256.562 176.072C254.77 176.072 253.426 174.76 253.426 172.792C253.426 170.824 254.77 169.512 256.562 169.512C258.354 169.512 259.682 170.824 259.682 172.792C259.682 174.76 258.354 176.072 256.562 176.072ZM265.841 170.232V168.584H264.753V177H265.889V172.712C265.889 170.728 266.961 169.608 268.721 169.608C268.801 169.608 268.897 169.624 268.993 169.624V168.52C267.441 168.52 266.369 169.112 265.841 170.232ZM276.986 168.52C275.642 168.52 274.49 169.096 273.786 170.184V165.128H272.65V177H273.738V175.336C274.426 176.472 275.594 177.08 276.986 177.08C279.386 177.08 281.178 175.336 281.178 172.792C281.178 170.248 279.386 168.52 276.986 168.52ZM276.906 176.072C275.114 176.072 273.77 174.76 273.77 172.792C273.77 170.824 275.114 169.512 276.906 169.512C278.682 169.512 280.042 170.824 280.042 172.792C280.042 174.76 278.682 176.072 276.906 176.072ZM294.913 175.672C294.593 175.96 294.129 176.104 293.665 176.104C292.721 176.104 292.209 175.56 292.209 174.568V169.544H294.769V168.584H292.209V166.744H291.073V168.584H289.569V169.544H291.073V174.632C291.073 176.184 291.953 177.08 293.537 177.08C294.193 177.08 294.865 176.888 295.313 176.488L294.913 175.672ZM303.269 168.52C301.845 168.52 300.741 169.08 300.117 170.056V165.128H298.981V177H300.117V172.584C300.117 170.664 301.253 169.544 303.061 169.544C304.661 169.544 305.589 170.456 305.589 172.232V177H306.725V172.12C306.725 169.704 305.317 168.52 303.269 168.52ZM314.353 168.52C313.025 168.52 311.777 168.936 310.929 169.656L311.441 170.504C312.129 169.896 313.153 169.512 314.241 169.512C315.809 169.512 316.625 170.296 316.625 171.736V172.248H313.953C311.537 172.248 310.705 173.336 310.705 174.632C310.705 176.088 311.873 177.08 313.777 177.08C315.169 177.08 316.161 176.552 316.673 175.688V177H317.761V171.784C317.761 169.608 316.529 168.52 314.353 168.52ZM313.953 176.184C312.609 176.184 311.825 175.576 311.825 174.6C311.825 173.736 312.353 173.096 313.985 173.096H316.625V174.472C316.177 175.576 315.233 176.184 313.953 176.184ZM326.478 175.672C326.158 175.96 325.694 176.104 325.23 176.104C324.286 176.104 323.774 175.56 323.774 174.568V169.544H326.334V168.584H323.774V166.744H322.638V168.584H321.134V169.544H322.638V174.632C322.638 176.184 323.518 177.08 325.102 177.08C325.758 177.08 326.43 176.888 326.878 176.488L326.478 175.672ZM63.92 188.52C62.576 188.52 61.424 189.096 60.72 190.184V185.128H59.584V197H60.672V195.336C61.36 196.472 62.528 197.08 63.92 197.08C66.32 197.08 68.112 195.336 68.112 192.792C68.112 190.248 66.32 188.52 63.92 188.52ZM63.84 196.072C62.048 196.072 60.704 194.76 60.704 192.792C60.704 190.824 62.048 189.512 63.84 189.512C65.616 189.512 66.976 190.824 66.976 192.792C66.976 194.76 65.616 196.072 63.84 196.072ZM73.1158 190.232V188.584H72.0278V197H73.1638V192.712C73.1638 190.728 74.2358 189.608 75.9958 189.608C76.0758 189.608 76.1718 189.624 76.2678 189.624V188.52C74.7158 188.52 73.6438 189.112 73.1158 190.232ZM87.1905 192.792C87.1905 190.264 85.4785 188.52 83.1105 188.52C80.7425 188.52 78.9985 190.296 78.9985 192.792C78.9985 195.288 80.7905 197.08 83.4145 197.08C84.7425 197.08 85.9105 196.6 86.6625 195.704L86.0225 194.968C85.3825 195.704 84.4705 196.072 83.4465 196.072C81.6065 196.072 80.2625 194.904 80.1345 193.144H87.1745C87.1745 193.016 87.1905 192.888 87.1905 192.792ZM83.1105 189.496C84.7585 189.496 85.9585 190.648 86.1025 192.296H80.1345C80.2785 190.648 81.4785 189.496 83.1105 189.496ZM93.8124 188.52C92.4844 188.52 91.2364 188.936 90.3884 189.656L90.9004 190.504C91.5884 189.896 92.6124 189.512 93.7004 189.512C95.2684 189.512 96.0844 190.296 96.0844 191.736V192.248H93.4124C90.9964 192.248 90.1644 193.336 90.1644 194.632C90.1644 196.088 91.3324 197.08 93.2364 197.08C94.6284 197.08 95.6204 196.552 96.1324 195.688V197H97.2204V191.784C97.2204 189.608 95.9884 188.52 93.8124 188.52ZM93.4124 196.184C92.0684 196.184 91.2844 195.576 91.2844 194.6C91.2844 193.736 91.8124 193.096 93.4444 193.096H96.0844V194.472C95.6364 195.576 94.6924 196.184 93.4124 196.184ZM108.418 197H109.81L105.874 192.024L109.474 188.584H108.066L103.042 193.176V185.128H101.906V197H103.042V194.6L105.026 192.776L108.418 197ZM115.121 197.08C117.313 197.08 118.593 196.136 118.593 194.68C118.593 191.448 113.137 193.16 113.137 190.888C113.137 190.088 113.809 189.496 115.329 189.496C116.193 189.496 117.073 189.704 117.809 190.216L118.305 189.304C117.601 188.824 116.417 188.52 115.329 188.52C113.185 188.52 112.001 189.544 112.001 190.92C112.001 194.248 117.457 192.52 117.457 194.712C117.457 195.544 116.801 196.088 115.201 196.088C114.017 196.088 112.881 195.672 112.209 195.144L111.697 196.04C112.385 196.632 113.729 197.08 115.121 197.08ZM128.657 186.744C129.137 186.744 129.489 186.376 129.489 185.912C129.489 185.48 129.121 185.128 128.657 185.128C128.193 185.128 127.825 185.496 127.825 185.928C127.825 186.376 128.193 186.744 128.657 186.744ZM128.081 197H129.217V188.584H128.081V197ZM138.266 188.52C136.81 188.52 135.674 189.112 135.066 190.136V188.584H133.978V197H135.114V192.584C135.114 190.664 136.25 189.544 138.058 189.544C139.658 189.544 140.586 190.456 140.586 192.232V197H141.722V192.12C141.722 189.704 140.314 188.52 138.266 188.52ZM150.438 195.672C150.118 195.96 149.654 196.104 149.19 196.104C148.246 196.104 147.734 195.56 147.734 194.568V189.544H150.294V188.584H147.734V186.744H146.598V188.584H145.094V189.544H146.598V194.632C146.598 196.184 147.478 197.08 149.062 197.08C149.718 197.08 150.39 196.888 150.838 196.488L150.438 195.672ZM157.649 197.08C160.113 197.08 161.921 195.288 161.921 192.792C161.921 190.296 160.113 188.52 157.649 188.52C155.185 188.52 153.361 190.296 153.361 192.792C153.361 195.288 155.185 197.08 157.649 197.08ZM157.649 196.072C155.857 196.072 154.513 194.76 154.513 192.792C154.513 190.824 155.857 189.512 157.649 189.512C159.441 189.512 160.769 190.824 160.769 192.792C160.769 194.76 159.441 196.072 157.649 196.072ZM174.572 188.52C173.244 188.52 171.996 188.936 171.148 189.656L171.66 190.504C172.348 189.896 173.372 189.512 174.46 189.512C176.028 189.512 176.844 190.296 176.844 191.736V192.248H174.172C171.756 192.248 170.924 193.336 170.924 194.632C170.924 196.088 172.092 197.08 173.996 197.08C175.388 197.08 176.38 196.552 176.892 195.688V197H177.98V191.784C177.98 189.608 176.748 188.52 174.572 188.52ZM174.172 196.184C172.828 196.184 172.044 195.576 172.044 194.6C172.044 193.736 172.572 193.096 174.204 193.096H176.844V194.472C176.396 195.576 175.452 196.184 174.172 196.184ZM190.709 197.08C192.901 197.08 194.181 196.136 194.181 194.68C194.181 191.448 188.725 193.16 188.725 190.888C188.725 190.088 189.397 189.496 190.917 189.496C191.781 189.496 192.661 189.704 193.397 190.216L193.893 189.304C193.189 188.824 192.005 188.52 190.917 188.52C188.773 188.52 187.589 189.544 187.589 190.92C187.589 194.248 193.045 192.52 193.045 194.712C193.045 195.544 192.389 196.088 190.789 196.088C189.605 196.088 188.469 195.672 187.797 195.144L187.285 196.04C187.973 196.632 189.317 197.08 190.709 197.08ZM197.881 197H199.017V185.128H197.881V197ZM207.218 197.08C209.682 197.08 211.49 195.288 211.49 192.792C211.49 190.296 209.682 188.52 207.218 188.52C204.754 188.52 202.93 190.296 202.93 192.792C202.93 195.288 204.754 197.08 207.218 197.08ZM207.218 196.072C205.426 196.072 204.082 194.76 204.082 192.792C204.082 190.824 205.426 189.512 207.218 189.512C209.01 189.512 210.338 190.824 210.338 192.792C210.338 194.76 209.01 196.072 207.218 196.072ZM226.487 188.584L223.815 195.736L221.127 188.584H220.151L217.447 195.736L214.807 188.584H213.719L216.887 197H217.959L220.615 190.104L223.271 197H224.343L227.527 188.584H226.487ZM231.413 186.744C231.893 186.744 232.245 186.376 232.245 185.912C232.245 185.48 231.877 185.128 231.413 185.128C230.949 185.128 230.581 185.496 230.581 185.928C230.581 186.376 230.949 186.744 231.413 186.744ZM230.837 197H231.973V188.584H230.837V197ZM241.022 188.52C239.566 188.52 238.43 189.112 237.822 190.136V188.584H236.734V197H237.87V192.584C237.87 190.664 239.006 189.544 240.814 189.544C242.414 189.544 243.342 190.456 243.342 192.232V197H244.478V192.12C244.478 189.704 243.07 188.52 241.022 188.52ZM255.897 188.584V190.2C255.193 189.096 253.977 188.52 252.569 188.52C250.169 188.52 248.345 190.168 248.345 192.584C248.345 195 250.169 196.68 252.569 196.68C253.945 196.68 255.145 196.12 255.849 195.048V196.12C255.849 198.2 254.873 199.176 252.745 199.176C251.449 199.176 250.233 198.744 249.433 198.024L248.857 198.888C249.737 199.72 251.241 200.184 252.777 200.184C255.561 200.184 256.985 198.872 256.985 195.976V188.584H255.897ZM252.681 195.672C250.825 195.672 249.497 194.408 249.497 192.584C249.497 190.76 250.825 189.512 252.681 189.512C254.537 189.512 255.881 190.76 255.881 192.584C255.881 194.408 254.537 195.672 252.681 195.672ZM267.742 187.544V188.584H266.238V189.544H267.742V197H268.878V189.544H271.438V188.584H268.846V187.592C268.846 186.552 269.358 186.008 270.334 186.008C270.814 186.008 271.262 186.152 271.582 186.424L271.966 185.576C271.55 185.224 270.91 185.048 270.286 185.048C268.638 185.048 267.742 186.04 267.742 187.544ZM274.83 185.128C274.366 185.128 273.998 185.496 273.998 185.928C273.998 186.376 274.366 186.744 274.83 186.744C275.31 186.744 275.662 186.376 275.662 185.912C275.662 185.48 275.294 185.128 274.83 185.128ZM274.254 197H275.39V188.584H274.254V197ZM287.509 192.792C287.509 190.264 285.797 188.52 283.429 188.52C281.061 188.52 279.317 190.296 279.317 192.792C279.317 195.288 281.109 197.08 283.733 197.08C285.061 197.08 286.229 196.6 286.981 195.704L286.341 194.968C285.701 195.704 284.789 196.072 283.765 196.072C281.925 196.072 280.581 194.904 280.453 193.144H287.493C287.493 193.016 287.509 192.888 287.509 192.792ZM283.429 189.496C285.077 189.496 286.277 190.648 286.421 192.296H280.453C280.597 190.648 281.797 189.496 283.429 189.496ZM291.421 197H292.557V185.128H291.421V197ZM303.862 185.128V190.184C303.158 189.096 302.006 188.52 300.662 188.52C298.262 188.52 296.47 190.248 296.47 192.792C296.47 195.336 298.262 197.08 300.662 197.08C302.054 197.08 303.222 196.472 303.91 195.336V197H304.998V185.128H303.862ZM300.758 196.072C298.966 196.072 297.622 194.76 297.622 192.792C297.622 190.824 298.966 189.512 300.758 189.512C302.534 189.512 303.878 190.824 303.878 192.792C303.878 194.76 302.534 196.072 300.758 196.072ZM321.998 188.584V193C321.998 194.92 320.894 196.056 319.134 196.056C317.534 196.056 316.606 195.144 316.606 193.352V188.584H315.47V193.464C315.47 195.88 316.878 197.08 319.022 197.08C320.366 197.08 321.454 196.488 322.046 195.464V197H323.134V188.584H321.998ZM332.251 188.52C330.859 188.52 329.691 189.128 329.003 190.248V188.584H327.915V200.104H329.051V195.416C329.755 196.504 330.907 197.08 332.251 197.08C334.651 197.08 336.443 195.352 336.443 192.792C336.443 190.248 334.651 188.52 332.251 188.52ZM332.171 196.072C330.379 196.072 329.035 194.76 329.035 192.792C329.035 190.84 330.379 189.512 332.171 189.512C333.947 189.512 335.307 190.84 335.307 192.792C335.307 194.76 333.947 196.072 332.171 196.072ZM343.799 197.08C346.263 197.08 348.071 195.288 348.071 192.792C348.071 190.296 346.263 188.52 343.799 188.52C341.335 188.52 339.511 190.296 339.511 192.792C339.511 195.288 341.335 197.08 343.799 197.08ZM343.799 196.072C342.007 196.072 340.663 194.76 340.663 192.792C340.663 190.824 342.007 189.512 343.799 189.512C345.591 189.512 346.919 190.824 346.919 192.792C346.919 194.76 345.591 196.072 343.799 196.072ZM356.278 188.52C354.822 188.52 353.686 189.112 353.078 190.136V188.584H351.99V197H353.126V192.584C353.126 190.664 354.262 189.544 356.07 189.544C357.67 189.544 358.598 190.456 358.598 192.232V197H359.734V192.12C359.734 189.704 358.326 188.52 356.278 188.52ZM60.16 206.744C60.64 206.744 60.992 206.376 60.992 205.912C60.992 205.48 60.624 205.128 60.16 205.128C59.696 205.128 59.328 205.496 59.328 205.928C59.328 206.376 59.696 206.744 60.16 206.744ZM59.584 217H60.72V208.584H59.584V217ZM75.9769 208.52C74.4569 208.52 73.2569 209.208 72.6489 210.296C72.1369 209.112 71.0489 208.52 69.6569 208.52C68.2489 208.52 67.1609 209.112 66.5689 210.12V208.584H65.4809V217H66.6169V212.584C66.6169 210.664 67.7209 209.544 69.4329 209.544C70.9689 209.544 71.8649 210.456 71.8649 212.232V217H73.0009V212.584C73.0009 210.664 74.0889 209.544 75.8169 209.544C77.3369 209.544 78.2329 210.456 78.2329 212.232V217H79.3689V212.12C79.3689 209.704 78.0249 208.52 75.9769 208.52ZM88.3856 208.52C86.9936 208.52 85.8256 209.128 85.1376 210.248V208.584H84.0496V220.104H85.1856V215.416C85.8896 216.504 87.0416 217.08 88.3856 217.08C90.7856 217.08 92.5776 215.352 92.5776 212.792C92.5776 210.248 90.7856 208.52 88.3856 208.52ZM88.3056 216.072C86.5136 216.072 85.1696 214.76 85.1696 212.792C85.1696 210.84 86.5136 209.512 88.3056 209.512C90.0816 209.512 91.4416 210.84 91.4416 212.792C91.4416 214.76 90.0816 216.072 88.3056 216.072ZM99.3905 208.52C98.0625 208.52 96.8145 208.936 95.9665 209.656L96.4785 210.504C97.1665 209.896 98.1905 209.512 99.2785 209.512C100.846 209.512 101.662 210.296 101.662 211.736V212.248H98.9905C96.5745 212.248 95.7425 213.336 95.7425 214.632C95.7425 216.088 96.9105 217.08 98.8145 217.08C100.206 217.08 101.198 216.552 101.71 215.688V217H102.798V211.784C102.798 209.608 101.566 208.52 99.3905 208.52ZM98.9905 216.184C97.6465 216.184 96.8625 215.576 96.8625 214.6C96.8625 213.736 97.3905 213.096 99.0225 213.096H101.662V214.472C101.214 215.576 100.27 216.184 98.9905 216.184ZM111.003 217.08C112.427 217.08 113.627 216.504 114.299 215.416L113.451 214.84C112.875 215.688 111.979 216.072 111.003 216.072C109.163 216.072 107.819 214.776 107.819 212.792C107.819 210.824 109.163 209.512 111.003 209.512C111.979 209.512 112.875 209.912 113.451 210.76L114.299 210.184C113.627 209.08 112.427 208.52 111.003 208.52C108.491 208.52 106.667 210.28 106.667 212.792C106.667 215.304 108.491 217.08 111.003 217.08ZM122.257 215.672C121.937 215.96 121.473 216.104 121.009 216.104C120.065 216.104 119.553 215.56 119.553 214.568V209.544H122.113V208.584H119.553V206.744H118.417V208.584H116.913V209.544H118.417V214.632C118.417 216.184 119.297 217.08 120.881 217.08C121.537 217.08 122.209 216.888 122.657 216.488L122.257 215.672ZM143.424 208.584L140.752 215.736L138.064 208.584H137.088L134.384 215.736L131.744 208.584H130.656L133.824 217H134.896L137.552 210.104L140.208 217H141.28L144.464 208.584H143.424ZM148.351 206.744C148.831 206.744 149.183 206.376 149.183 205.912C149.183 205.48 148.815 205.128 148.351 205.128C147.887 205.128 147.519 205.496 147.519 205.928C147.519 206.376 147.887 206.744 148.351 206.744ZM147.775 217H148.911V208.584H147.775V217ZM157.704 215.672C157.384 215.96 156.92 216.104 156.456 216.104C155.512 216.104 155 215.56 155 214.568V209.544H157.56V208.584H155V206.744H153.864V208.584H152.36V209.544H153.864V214.632C153.864 216.184 154.744 217.08 156.328 217.08C156.984 217.08 157.656 216.888 158.104 216.488L157.704 215.672ZM166.06 208.52C164.636 208.52 163.532 209.08 162.908 210.056V205.128H161.772V217H162.908V212.584C162.908 210.664 164.044 209.544 165.852 209.544C167.452 209.544 168.38 210.456 168.38 212.232V217H169.516V212.12C169.516 209.704 168.108 208.52 166.06 208.52ZM184.019 215.672C183.699 215.96 183.235 216.104 182.771 216.104C181.827 216.104 181.315 215.56 181.315 214.568V209.544H183.875V208.584H181.315V206.744H180.179V208.584H178.675V209.544H180.179V214.632C180.179 216.184 181.059 217.08 182.643 217.08C183.299 217.08 183.971 216.888 184.419 216.488L184.019 215.672ZM192.375 208.52C190.951 208.52 189.847 209.08 189.223 210.056V205.128H188.087V217H189.223V212.584C189.223 210.664 190.359 209.544 192.167 209.544C193.767 209.544 194.695 210.456 194.695 212.232V217H195.831V212.12C195.831 209.704 194.423 208.52 192.375 208.52ZM207.89 212.792C207.89 210.264 206.178 208.52 203.81 208.52C201.442 208.52 199.698 210.296 199.698 212.792C199.698 215.288 201.49 217.08 204.114 217.08C205.442 217.08 206.61 216.6 207.362 215.704L206.722 214.968C206.082 215.704 205.17 216.072 204.146 216.072C202.306 216.072 200.962 214.904 200.834 213.144H207.874C207.874 213.016 207.89 212.888 207.89 212.792ZM203.81 209.496C205.458 209.496 206.658 210.648 206.802 212.296H200.834C200.978 210.648 202.178 209.496 203.81 209.496ZM224.294 208.584V210.2C223.59 209.096 222.374 208.52 220.966 208.52C218.566 208.52 216.742 210.168 216.742 212.584C216.742 215 218.566 216.68 220.966 216.68C222.342 216.68 223.542 216.12 224.246 215.048V216.12C224.246 218.2 223.27 219.176 221.142 219.176C219.846 219.176 218.63 218.744 217.83 218.024L217.254 218.888C218.134 219.72 219.638 220.184 221.174 220.184C223.958 220.184 225.382 218.872 225.382 215.976V208.584H224.294ZM221.078 215.672C219.222 215.672 217.894 214.408 217.894 212.584C217.894 210.76 219.222 209.512 221.078 209.512C222.934 209.512 224.278 210.76 224.278 212.584C224.278 214.408 222.934 215.672 221.078 215.672ZM231.247 210.232V208.584H230.159V217H231.295V212.712C231.295 210.728 232.367 209.608 234.127 209.608C234.207 209.608 234.303 209.624 234.399 209.624V208.52C232.847 208.52 231.775 209.112 231.247 210.232ZM241.418 217.08C243.882 217.08 245.69 215.288 245.69 212.792C245.69 210.296 243.882 208.52 241.418 208.52C238.954 208.52 237.13 210.296 237.13 212.792C237.13 215.288 238.954 217.08 241.418 217.08ZM241.418 216.072C239.626 216.072 238.282 214.76 238.282 212.792C238.282 210.824 239.626 209.512 241.418 209.512C243.21 209.512 244.538 210.824 244.538 212.792C244.538 214.76 243.21 216.072 241.418 216.072ZM256.057 208.584V213C256.057 214.92 254.953 216.056 253.193 216.056C251.593 216.056 250.665 215.144 250.665 213.352V208.584H249.529V213.464C249.529 215.88 250.937 217.08 253.081 217.08C254.425 217.08 255.513 216.488 256.105 215.464V217H257.193V208.584H256.057ZM266.263 208.52C264.807 208.52 263.671 209.112 263.063 210.136V208.584H261.975V217H263.111V212.584C263.111 210.664 264.247 209.544 266.055 209.544C267.655 209.544 268.583 210.456 268.583 212.232V217H269.719V212.12C269.719 209.704 268.311 208.52 266.263 208.52ZM280.978 205.128V210.184C280.274 209.096 279.122 208.52 277.778 208.52C275.378 208.52 273.586 210.248 273.586 212.792C273.586 215.336 275.378 217.08 277.778 217.08C279.17 217.08 280.338 216.472 281.026 215.336V217H282.114V205.128H280.978ZM277.874 216.072C276.082 216.072 274.738 214.76 274.738 212.792C274.738 210.824 276.082 209.512 277.874 209.512C279.65 209.512 280.994 210.824 280.994 212.792C280.994 214.76 279.65 216.072 277.874 216.072ZM286.99 217.08C287.454 217.08 287.854 216.696 287.854 216.2C287.854 215.704 287.454 215.336 286.99 215.336C286.526 215.336 286.142 215.704 286.142 216.2C286.142 216.696 286.526 217.08 286.99 217.08Z" fill="#1F2326"/>
<rect x="416" y="64" width="190" height="182" fill="#FF4656"/>
<path fill-rule="evenodd" clip-rule="evenodd" d="M638.746 111.5C638.746 148.902 607.296 179.222 568.5 179.222C529.704 179.222 498.254 148.902 498.254 111.5C498.254 74.0979 529.704 43.7778 568.5 43.7778C607.296 43.7778 638.746 74.0979 638.746 111.5ZM652 111.5C652 155.959 614.616 192 568.5 192C522.384 192 485 155.959 485 111.5C485 67.0412 522.384 31 568.5 31C614.616 31 652 67.0412 652 111.5ZM557.896 71.8886L543.242 58.938C532.756 63.4934 523.919 70.9495 517.83 80.2459L524.761 93.6111L513.107 89.1165C510.367 95.6335 508.858 102.758 508.858 110.223C508.858 113.737 509.192 117.176 509.832 120.512L530.063 116.611L548.619 85.9444L544.642 116.611L519.204 142.202C521.971 146.052 525.223 149.553 528.876 152.622L528.738 152.389L543.317 140.889L535.74 157.586C544.811 163.194 555.599 166.445 567.175 166.445C581.543 166.445 594.698 161.436 604.862 153.13L596.333 142.166L564.524 138.333L593.682 129.389L595.008 112.778L580.428 80.8331L604.285 111.5V128.111L618.61 136.743C623.002 128.842 625.492 119.813 625.492 110.223C625.492 97.4018 621.041 85.5835 613.547 76.1252L601.635 91.0552L607.748 69.8377C597.251 60.0341 582.944 54.0006 567.175 54.0006C566.732 54.0006 566.29 54.0056 565.849 54.015V65.4996L569.825 71.8886L563.198 97.4443L557.896 71.8886Z" fill="#1F2326"/>
</svg>
