<svg width="50" height="40" viewBox="0 0 50 40" fill="none" xmlns="http://www.w3.org/2000/svg">
<path d="M0 3C0 1.34315 1.34315 0 3 0H47C48.6569 0 50 1.34315 50 3V7C50 8.65685 48.6569 10 47 10H3C1.34315 10 0 8.65685 0 7V3Z" fill="white"/>
<path d="M0 18C0 16.3431 1.34315 15 3 15H47C48.6569 15 50 16.3431 50 18V22C50 23.6569 48.6569 25 47 25H3C1.34315 25 0 23.6569 0 22V18Z" fill="white"/>
<path d="M0 33C0 31.3431 1.34315 30 3 30H47C48.6569 30 50 31.3431 50 33V37C50 38.6569 48.6569 40 47 40H3C1.34315 40 0 38.6569 0 37V33Z" fill="white"/>
</svg>
