<svg width="39" height="39" viewBox="0 0 39 39" fill="none" xmlns="http://www.w3.org/2000/svg">
<path d="M1.45746 36.7566C-0.491285 34.8001 -0.485003 31.6343 1.47149 29.6855L29.8118 1.45746C31.7683 -0.491285 34.9341 -0.485004 36.8829 1.47149C38.8316 3.42798 38.8253 6.5938 36.8689 8.54254L8.52851 36.7706C6.57202 38.7194 3.4062 38.7131 1.45746 36.7566Z" fill="white"/>
<path d="M37.0609 37.0048C35.1083 38.9574 31.9425 38.9574 29.9898 37.0048L1.70558 8.72055C-0.247043 6.76793 -0.247044 3.6021 1.70558 1.64948C3.6582 -0.303142 6.82402 -0.303142 8.77664 1.64948L37.0609 29.9338C39.0135 31.8864 39.0135 35.0522 37.0609 37.0048Z" fill="white"/>
</svg>
