<svg width="724" height="248" viewBox="0 0 724 248" fill="none" xmlns="http://www.w3.org/2000/svg">
<path d="M1 247V13.4142L13.4176 1H722.694L722.999 247H1Z" fill="#F8F8F8" stroke="black" stroke-width="2"/>
<path d="M59.368 129H64.96V121.968H76.96V129H82.552V111.144H76.96V117.648H64.96V111.144H59.368V129ZM94.1219 118.728C96.8339 118.728 98.0819 119.544 98.4419 120.912H89.8019C90.2099 119.544 91.4099 118.728 94.0979 118.728H94.1219ZM103.77 124.44H98.4899C98.4179 124.752 97.8419 126.096 94.2899 126.096H94.2659C91.3139 126.096 90.0179 125.088 89.7059 123.576H103.842V122.688C103.842 119.544 102.45 115.728 94.8659 115.728H93.4019C86.4179 115.728 84.4499 118.92 84.4499 122.232V122.76C84.4499 126.144 86.6579 129.36 93.5459 129.36H94.9139C102.618 129.36 103.77 126.216 103.77 124.464V124.44ZM116.864 123.264C116.864 124.8 115.016 126.336 112.16 126.336C110.336 126.336 109.808 125.568 109.808 124.872V124.848C109.808 124.104 110.384 123.864 111.752 123.648L116.864 122.856V123.264ZM117.008 127.224C117.2 128.448 118.016 129 119.048 129H123.392V125.496H122.696C122.144 125.496 122.024 125.232 122.024 124.848V119.904C122.024 118.032 121.544 115.728 114.056 115.728H112.736C105.536 115.728 105.032 118.392 105.032 120.096V120.144H110C110.072 119.712 110.192 118.704 113.384 118.704H113.504C116.648 118.704 116.864 119.28 116.864 119.76C116.864 120.168 116.648 120.36 116.048 120.432L110.144 120.984C106.28 121.344 104.72 122.472 104.72 124.848V125.016C104.72 127.224 106.376 129.24 110.72 129.24H111.032C114.824 129.24 116.456 127.92 117.008 127.224ZM130.011 111.144H124.659V129H130.011V111.144ZM137.628 111.144H132.276V114.84H137.628V111.144ZM137.628 116.088H132.276V129H137.628V116.088ZM139.894 129H145.246V122.904C145.246 120.792 146.806 119.4 149.206 119.4C151.582 119.4 152.662 120.624 152.662 122.616V129H158.062V120.84C158.062 118.344 156.286 115.8 151.774 115.8H151.606C147.766 115.8 145.846 117.648 145.198 118.296V116.088H139.894V129ZM169.669 119.136C173.029 119.136 174.541 120.528 174.541 122.064V122.16C174.541 123.648 173.053 125.136 169.669 125.136H169.525C166.237 125.136 165.109 123.6 165.109 122.136V122.016C165.109 120.576 166.069 119.136 169.525 119.136H169.669ZM170.941 133.68C178.861 133.68 180.013 128.976 180.013 126.648V116.088H174.637V117.816C173.941 117.168 172.213 115.776 167.917 115.776H167.413C161.677 115.776 159.661 118.656 159.661 121.776V122.256C159.661 125.592 162.037 128.424 168.085 128.424H168.373C172.429 128.424 174.013 127.056 174.661 126.48C174.661 128.136 174.037 130.2 170.053 130.2H169.981C166.309 130.2 165.925 129.312 165.853 129H160.453V129.072C160.453 130.104 161.125 133.68 169.237 133.68H170.941ZM201.747 110.832C190.443 110.832 189.171 116.472 189.171 119.664V120.384C189.171 123.528 190.443 129.312 201.747 129.312H202.779C214.035 129.312 215.331 123.528 215.331 120.384V119.664C215.331 116.472 214.011 110.832 202.779 110.832H201.747ZM209.475 120.168C209.475 122.232 208.251 124.968 202.251 124.968C196.203 124.968 195.027 122.16 195.027 120.12V119.832C195.027 117.792 196.107 115.152 202.251 115.152C208.299 115.152 209.475 117.792 209.475 119.832V120.168ZM222.449 122.328C222.449 120.672 223.433 119.208 225.233 119.208H225.257C227.273 119.208 227.993 120.648 227.993 122.304H233.153V121.56C233.153 118.224 231.641 115.8 227.897 115.8H227.633C224.417 115.8 222.857 117.648 222.401 118.368V116.088H217.097V129H222.449V122.328ZM234.745 111.144V129H239.689C239.761 128.4 239.857 127.68 240.025 127.176C240.529 127.68 242.713 129.312 246.409 129.312H246.817C252.553 129.312 254.881 126.192 254.881 122.712V122.256C254.881 118.728 252.841 115.776 246.985 115.776H246.553C242.689 115.776 240.673 117.432 240.097 117.888V111.144H234.745ZM240.097 122.448C240.097 120.792 241.561 119.112 244.753 119.112H244.897C248.377 119.112 249.409 120.792 249.409 122.448V122.544C249.409 124.104 248.377 125.904 244.897 125.904H244.753C241.609 125.904 240.097 124.152 240.097 122.544V122.448Z" fill="black"/>
<path d="M78.92 72.52C93.88 72.52 96.36 67.48 96.36 62.56V62C96.36 56.08 91.84 53.36 80.64 53.16L75.64 53.08C69.56 52.96 68.76 51.8 68.76 50.52C68.76 49.24 69.28 47.96 76.48 47.96H77.12C84.92 47.96 85.52 50.4 85.72 51.52H95.4V51.12C95.4 46.64 92.2 41.72 78.12 41.72H75.36C61.8 41.72 59.16 46.36 59.16 50.8V51.16C59.16 55.8 62.56 59.56 73.68 59.88L78.8 60C85.68 60.2 86.6 61.28 86.6 63C86.6 64.6 85.72 66.16 77.88 66.16H77.32C69.64 66.16 68.6 63.24 68.48 61.44H58.76V61.88C58.76 65.8 60.56 72.52 76.16 72.52H78.92ZM108.858 42.24H99.5378V72H108.858V42.24ZM132.885 72.52C142.085 72.52 145.925 68.84 147.205 67.36C147.725 68.6 148.285 70.92 148.405 72H154.005V55.32H133.045V60.96H144.725V61.04C144.725 61.88 142.045 65.28 133.205 65.28C125.005 65.28 121.965 61.16 121.965 57.28V56.84C121.965 52.72 124.205 48.8 133.285 48.8C142.565 48.8 143.645 52.36 143.885 53.04H153.805V53C153.645 48.96 150.725 41.72 134.085 41.72H132.365C115.245 41.72 112.205 50.64 112.205 56.44V57.56C112.205 63.52 115.925 72.52 132.045 72.52H132.885ZM158.249 42.24V72H167.449V52.28L187.649 72H196.849V42.24H187.649V60.96L168.649 42.24H158.249ZM225.253 59.84H213.973L219.493 48.68L225.253 59.84ZM231.493 72H241.533L225.613 42.24H213.533L198.493 72H207.973L210.653 66.56H228.693L231.493 72ZM249.108 72H258.508V49.28H271.348V42.24H236.308V49.28H249.108V72ZM294.373 72.44C309.613 72.44 312.653 62.28 312.653 56.68V42.24H303.333V56.12C303.333 59.96 301.573 64.72 293.573 64.72C285.453 64.72 283.733 59.96 283.733 56.12V42.24H274.373V56.68C274.373 62.28 276.973 72.44 292.933 72.44H294.373ZM326.163 49H340.283C343.003 49 344.043 50.32 344.043 51.88V51.92C344.043 53.56 342.963 54.84 340.283 54.84H326.163V49ZM326.163 61.44H338.323C342.923 61.44 344.523 63.04 344.523 66.68V70.12C344.523 71.2 344.683 71.64 344.963 72H354.443V71.8C354.163 71.32 353.883 70.56 353.883 68.16V63.8C353.883 59.96 351.283 57.84 348.243 56.96C350.203 56.32 353.763 54.72 353.763 50.44V49.96C353.763 45.68 350.763 42.24 340.843 42.24H316.843V72H326.163V61.44ZM357.546 42.24V72H389.306V65.08H366.746V60.2H388.386V53.4H366.746V49H388.906V42.24H357.546Z" fill="#C4C4C4"/>
<path d="M68.016 165.8V170.792H61.008V165.8H59.824V177H61.008V171.832H68.016V177H69.184V165.8H68.016ZM81.5436 172.792C81.5436 170.264 79.8316 168.52 77.4636 168.52C75.0956 168.52 73.3516 170.296 73.3516 172.792C73.3516 175.288 75.1436 177.08 77.7676 177.08C79.0956 177.08 80.2636 176.6 81.0156 175.704L80.3756 174.968C79.7356 175.704 78.8236 176.072 77.7996 176.072C75.9596 176.072 74.6156 174.904 74.4876 173.144H81.5276C81.5276 173.016 81.5436 172.888 81.5436 172.792ZM77.4636 169.496C79.1116 169.496 80.3116 170.648 80.4556 172.296H74.4876C74.6316 170.648 75.8316 169.496 77.4636 169.496ZM88.1655 168.52C86.8375 168.52 85.5895 168.936 84.7415 169.656L85.2535 170.504C85.9415 169.896 86.9655 169.512 88.0535 169.512C89.6215 169.512 90.4375 170.296 90.4375 171.736V172.248H87.7655C85.3495 172.248 84.5175 173.336 84.5175 174.632C84.5175 176.088 85.6855 177.08 87.5895 177.08C88.9815 177.08 89.9735 176.552 90.4855 175.688V177H91.5735V171.784C91.5735 169.608 90.3415 168.52 88.1655 168.52ZM87.7655 176.184C86.4215 176.184 85.6375 175.576 85.6375 174.6C85.6375 173.736 86.1655 173.096 87.7975 173.096H90.4375V174.472C89.9895 175.576 89.0455 176.184 87.7655 176.184ZM96.259 177H97.395V165.128H96.259V177ZM110.887 168.52C109.559 168.52 108.311 168.936 107.463 169.656L107.975 170.504C108.663 169.896 109.687 169.512 110.775 169.512C112.343 169.512 113.159 170.296 113.159 171.736V172.248H110.487C108.071 172.248 107.239 173.336 107.239 174.632C107.239 176.088 108.407 177.08 110.311 177.08C111.703 177.08 112.695 176.552 113.207 175.688V177H114.295V171.784C114.295 169.608 113.063 168.52 110.887 168.52ZM110.487 176.184C109.143 176.184 108.359 175.576 108.359 174.6C108.359 173.736 108.887 173.096 110.519 173.096H113.159V174.472C112.711 175.576 111.767 176.184 110.487 176.184ZM123.269 168.52C121.813 168.52 120.677 169.112 120.069 170.136V168.584H118.981V177H120.117V172.584C120.117 170.664 121.253 169.544 123.061 169.544C124.661 169.544 125.589 170.456 125.589 172.232V177H126.725V172.12C126.725 169.704 125.317 168.52 123.269 168.52ZM140.141 168.52C138.813 168.52 137.565 168.936 136.717 169.656L137.229 170.504C137.917 169.896 138.941 169.512 140.029 169.512C141.597 169.512 142.413 170.296 142.413 171.736V172.248H139.741C137.325 172.248 136.493 173.336 136.493 174.632C136.493 176.088 137.661 177.08 139.565 177.08C140.957 177.08 141.949 176.552 142.461 175.688V177H143.549V171.784C143.549 169.608 142.317 168.52 140.141 168.52ZM139.741 176.184C138.397 176.184 137.613 175.576 137.613 174.6C137.613 173.736 138.141 173.096 139.773 173.096H142.413V174.472C141.965 175.576 141.021 176.184 139.741 176.184ZM148.234 177H149.37V165.128H148.234V177ZM154.131 177H155.267V165.128H154.131V177ZM165.98 168.584L162.812 175.736L159.644 168.584H158.46L162.22 176.984L161.852 177.8C161.372 178.856 160.86 179.208 160.108 179.208C159.5 179.208 158.988 178.984 158.572 178.568L158.044 179.416C158.556 179.928 159.308 180.184 160.092 180.184C161.292 180.184 162.188 179.656 162.892 178.008L167.1 168.584H165.98ZM179.527 177.08C181.991 177.08 183.799 175.288 183.799 172.792C183.799 170.296 181.991 168.52 179.527 168.52C177.063 168.52 175.239 170.296 175.239 172.792C175.239 175.288 177.063 177.08 179.527 177.08ZM179.527 176.072C177.735 176.072 176.391 174.76 176.391 172.792C176.391 170.824 177.735 169.512 179.527 169.512C181.319 169.512 182.647 170.824 182.647 172.792C182.647 174.76 181.319 176.072 179.527 176.072ZM188.806 170.232V168.584H187.718V177H188.854V172.712C188.854 170.728 189.926 169.608 191.686 169.608C191.766 169.608 191.862 169.624 191.958 169.624V168.52C190.406 168.52 189.334 169.112 188.806 170.232ZM207.48 168.584L204.312 175.736L201.144 168.584H199.96L203.72 176.984L203.352 177.8C202.872 178.856 202.36 179.208 201.608 179.208C201 179.208 200.488 178.984 200.072 178.568L199.544 179.416C200.056 179.928 200.808 180.184 201.592 180.184C202.792 180.184 203.688 179.656 204.392 178.008L208.6 168.584H207.48ZM215.005 177.08C217.469 177.08 219.277 175.288 219.277 172.792C219.277 170.296 217.469 168.52 215.005 168.52C212.541 168.52 210.717 170.296 210.717 172.792C210.717 175.288 212.541 177.08 215.005 177.08ZM215.005 176.072C213.213 176.072 211.869 174.76 211.869 172.792C211.869 170.824 213.213 169.512 215.005 169.512C216.797 169.512 218.125 170.824 218.125 172.792C218.125 174.76 216.797 176.072 215.005 176.072ZM229.645 168.584V173C229.645 174.92 228.541 176.056 226.781 176.056C225.181 176.056 224.253 175.144 224.253 173.352V168.584H223.117V173.464C223.117 175.88 224.525 177.08 226.669 177.08C228.013 177.08 229.101 176.488 229.693 175.464V177H230.781V168.584H229.645ZM236.65 170.232V168.584H235.562V177H236.698V172.712C236.698 170.728 237.77 169.608 239.53 169.608C239.61 169.608 239.706 169.624 239.802 169.624V168.52C238.25 168.52 237.178 169.112 236.65 170.232ZM245.778 177.08C247.97 177.08 249.25 176.136 249.25 174.68C249.25 171.448 243.794 173.16 243.794 170.888C243.794 170.088 244.466 169.496 245.986 169.496C246.85 169.496 247.73 169.704 248.466 170.216L248.962 169.304C248.258 168.824 247.074 168.52 245.986 168.52C243.842 168.52 242.658 169.544 242.658 170.92C242.658 174.248 248.114 172.52 248.114 174.712C248.114 175.544 247.458 176.088 245.858 176.088C244.674 176.088 243.538 175.672 242.866 175.144L242.354 176.04C243.042 176.632 244.386 177.08 245.778 177.08ZM260.294 172.792C260.294 170.264 258.582 168.52 256.214 168.52C253.846 168.52 252.102 170.296 252.102 172.792C252.102 175.288 253.894 177.08 256.518 177.08C257.846 177.08 259.014 176.6 259.766 175.704L259.126 174.968C258.486 175.704 257.574 176.072 256.55 176.072C254.71 176.072 253.366 174.904 253.238 173.144H260.278C260.278 173.016 260.294 172.888 260.294 172.792ZM256.214 169.496C257.862 169.496 259.062 170.648 259.206 172.296H253.238C253.382 170.648 254.582 169.496 256.214 169.496ZM264.206 177H265.342V165.128H264.206V177ZM272.887 166.008C273.367 166.008 273.815 166.152 274.135 166.424L274.519 165.576C274.103 165.224 273.463 165.048 272.839 165.048C271.191 165.048 270.295 166.04 270.295 167.544V168.584H268.791V169.544H270.295V177H271.431V169.544H273.991V168.584H271.399V167.592C271.399 166.552 271.911 166.008 272.887 166.008ZM286.944 175.672C286.624 175.96 286.16 176.104 285.696 176.104C284.752 176.104 284.24 175.56 284.24 174.568V169.544H286.8V168.584H284.24V166.744H283.104V168.584H281.6V169.544H283.104V174.632C283.104 176.184 283.984 177.08 285.568 177.08C286.224 177.08 286.896 176.888 287.344 176.488L286.944 175.672ZM294.155 177.08C296.619 177.08 298.427 175.288 298.427 172.792C298.427 170.296 296.619 168.52 294.155 168.52C291.691 168.52 289.867 170.296 289.867 172.792C289.867 175.288 291.691 177.08 294.155 177.08ZM294.155 176.072C292.363 176.072 291.019 174.76 291.019 172.792C291.019 170.824 292.363 169.512 294.155 169.512C295.947 169.512 297.275 170.824 297.275 172.792C297.275 174.76 295.947 176.072 294.155 176.072ZM310.918 166.008C311.398 166.008 311.846 166.152 312.166 166.424L312.55 165.576C312.134 165.224 311.494 165.048 310.87 165.048C309.222 165.048 308.326 166.04 308.326 167.544V168.584H306.822V169.544H308.326V177H309.462V169.544H312.022V168.584H309.43V167.592C309.43 166.552 309.942 166.008 310.918 166.008ZM321.604 168.584V173C321.604 174.92 320.5 176.056 318.74 176.056C317.14 176.056 316.212 175.144 316.212 173.352V168.584H315.076V173.464C315.076 175.88 316.484 177.08 318.628 177.08C319.972 177.08 321.06 176.488 321.652 175.464V177H322.74V168.584H321.604ZM327.522 177H328.658V165.128H327.522V177ZM333.418 177H334.554V165.128H333.418V177ZM63.872 188.52C62.448 188.52 61.344 189.08 60.72 190.056V185.128H59.584V197H60.72V192.584C60.72 190.664 61.856 189.544 63.664 189.544C65.264 189.544 66.192 190.456 66.192 192.232V197H67.328V192.12C67.328 189.704 65.92 188.52 63.872 188.52ZM79.3874 192.792C79.3874 190.264 77.6754 188.52 75.3074 188.52C72.9394 188.52 71.1954 190.296 71.1954 192.792C71.1954 195.288 72.9874 197.08 75.6114 197.08C76.9394 197.08 78.1074 196.6 78.8594 195.704L78.2194 194.968C77.5794 195.704 76.6674 196.072 75.6434 196.072C73.8034 196.072 72.4594 194.904 72.3314 193.144H79.3714C79.3714 193.016 79.3874 192.888 79.3874 192.792ZM75.3074 189.496C76.9554 189.496 78.1554 190.648 78.2994 192.296H72.3314C72.4754 190.648 73.6754 189.496 75.3074 189.496ZM86.0093 188.52C84.6813 188.52 83.4333 188.936 82.5853 189.656L83.0973 190.504C83.7853 189.896 84.8093 189.512 85.8973 189.512C87.4653 189.512 88.2813 190.296 88.2813 191.736V192.248H85.6093C83.1933 192.248 82.3613 193.336 82.3613 194.632C82.3613 196.088 83.5293 197.08 85.4333 197.08C86.8253 197.08 87.8173 196.552 88.3293 195.688V197H89.4173V191.784C89.4173 189.608 88.1853 188.52 86.0093 188.52ZM85.6093 196.184C84.2653 196.184 83.4813 195.576 83.4813 194.6C83.4813 193.736 84.0093 193.096 85.6413 193.096H88.2813V194.472C87.8333 195.576 86.8893 196.184 85.6093 196.184ZM94.1027 197H95.2387V185.128H94.1027V197ZM104.063 195.672C103.743 195.96 103.279 196.104 102.815 196.104C101.871 196.104 101.359 195.56 101.359 194.568V189.544H103.919V188.584H101.359V186.744H100.223V188.584H98.7189V189.544H100.223V194.632C100.223 196.184 101.103 197.08 102.687 197.08C103.343 197.08 104.015 196.888 104.463 196.488L104.063 195.672ZM112.419 188.52C110.995 188.52 109.891 189.08 109.267 190.056V185.128H108.131V197H109.267V192.584C109.267 190.664 110.403 189.544 112.211 189.544C113.811 189.544 114.739 190.456 114.739 192.232V197H115.875V192.12C115.875 189.704 114.467 188.52 112.419 188.52ZM129.786 197.08C132.25 197.08 134.058 195.288 134.058 192.792C134.058 190.296 132.25 188.52 129.786 188.52C127.322 188.52 125.498 190.296 125.498 192.792C125.498 195.288 127.322 197.08 129.786 197.08ZM129.786 196.072C127.994 196.072 126.65 194.76 126.65 192.792C126.65 190.824 127.994 189.512 129.786 189.512C131.578 189.512 132.906 190.824 132.906 192.792C132.906 194.76 131.578 196.072 129.786 196.072ZM143.695 188.584L140.511 195.752L137.359 188.584H136.175L139.903 197H141.071L144.815 188.584H143.695ZM155.125 192.792C155.125 190.264 153.413 188.52 151.045 188.52C148.677 188.52 146.933 190.296 146.933 192.792C146.933 195.288 148.725 197.08 151.349 197.08C152.677 197.08 153.845 196.6 154.597 195.704L153.957 194.968C153.317 195.704 152.405 196.072 151.381 196.072C149.541 196.072 148.197 194.904 148.069 193.144H155.109C155.109 193.016 155.125 192.888 155.125 192.792ZM151.045 189.496C152.693 189.496 153.893 190.648 154.037 192.296H148.069C148.213 190.648 149.413 189.496 151.045 189.496ZM160.125 190.232V188.584H159.037V197H160.173V192.712C160.173 190.728 161.245 189.608 163.005 189.608C163.085 189.608 163.181 189.624 163.277 189.624V188.52C161.725 188.52 160.653 189.112 160.125 190.232ZM175.79 188.52C174.462 188.52 173.214 188.936 172.366 189.656L172.878 190.504C173.566 189.896 174.59 189.512 175.678 189.512C177.246 189.512 178.062 190.296 178.062 191.736V192.248H175.39C172.974 192.248 172.142 193.336 172.142 194.632C172.142 196.088 173.31 197.08 175.214 197.08C176.606 197.08 177.598 196.552 178.11 195.688V197H179.198V191.784C179.198 189.608 177.966 188.52 175.79 188.52ZM175.39 196.184C174.046 196.184 173.262 195.576 173.262 194.6C173.262 193.736 173.79 193.096 175.422 193.096H178.062V194.472C177.614 195.576 176.67 196.184 175.39 196.184ZM192.455 186.008C192.935 186.008 193.383 186.152 193.703 186.424L194.087 185.576C193.671 185.224 193.031 185.048 192.407 185.048C190.759 185.048 189.863 186.04 189.863 187.544V188.584H188.359V189.544H189.863V197H190.999V189.544H193.559V188.584H190.967V187.592C190.967 186.552 191.479 186.008 192.455 186.008ZM203.897 192.792C203.897 190.264 202.185 188.52 199.817 188.52C197.449 188.52 195.705 190.296 195.705 192.792C195.705 195.288 197.497 197.08 200.121 197.08C201.449 197.08 202.617 196.6 203.369 195.704L202.729 194.968C202.089 195.704 201.177 196.072 200.153 196.072C198.313 196.072 196.969 194.904 196.841 193.144H203.881C203.881 193.016 203.897 192.888 203.897 192.792ZM199.817 189.496C201.465 189.496 202.665 190.648 202.809 192.296H196.841C196.985 190.648 198.185 189.496 199.817 189.496ZM218.965 188.584L216.293 195.736L213.605 188.584H212.629L209.925 195.736L207.285 188.584H206.197L209.365 197H210.437L213.093 190.104L215.749 197H216.821L220.005 188.584H218.965ZM231.359 197.08C233.551 197.08 234.831 196.136 234.831 194.68C234.831 191.448 229.375 193.16 229.375 190.888C229.375 190.088 230.047 189.496 231.567 189.496C232.431 189.496 233.311 189.704 234.047 190.216L234.543 189.304C233.839 188.824 232.655 188.52 231.567 188.52C229.423 188.52 228.239 189.544 228.239 190.92C228.239 194.248 233.695 192.52 233.695 194.712C233.695 195.544 233.039 196.088 231.439 196.088C230.255 196.088 229.119 195.672 228.447 195.144L227.935 196.04C228.623 196.632 229.967 197.08 231.359 197.08ZM245.875 192.792C245.875 190.264 244.163 188.52 241.795 188.52C239.427 188.52 237.683 190.296 237.683 192.792C237.683 195.288 239.475 197.08 242.099 197.08C243.427 197.08 244.595 196.6 245.347 195.704L244.707 194.968C244.067 195.704 243.155 196.072 242.131 196.072C240.291 196.072 238.947 194.904 238.819 193.144H245.859C245.859 193.016 245.875 192.888 245.875 192.792ZM241.795 189.496C243.443 189.496 244.643 190.648 244.787 192.296H238.819C238.963 190.648 240.163 189.496 241.795 189.496ZM253.275 197.08C254.699 197.08 255.899 196.504 256.571 195.416L255.723 194.84C255.147 195.688 254.251 196.072 253.275 196.072C251.435 196.072 250.091 194.776 250.091 192.792C250.091 190.824 251.435 189.512 253.275 189.512C254.251 189.512 255.147 189.912 255.723 190.76L256.571 190.184C255.899 189.08 254.699 188.52 253.275 188.52C250.763 188.52 248.939 190.28 248.939 192.792C248.939 195.304 250.763 197.08 253.275 197.08ZM263.702 197.08C266.166 197.08 267.974 195.288 267.974 192.792C267.974 190.296 266.166 188.52 263.702 188.52C261.238 188.52 259.414 190.296 259.414 192.792C259.414 195.288 261.238 197.08 263.702 197.08ZM263.702 196.072C261.91 196.072 260.566 194.76 260.566 192.792C260.566 190.824 261.91 189.512 263.702 189.512C265.494 189.512 266.822 190.824 266.822 192.792C266.822 194.76 265.494 196.072 263.702 196.072ZM276.181 188.52C274.725 188.52 273.589 189.112 272.981 190.136V188.584H271.893V197H273.029V192.584C273.029 190.664 274.165 189.544 275.973 189.544C277.573 189.544 278.501 190.456 278.501 192.232V197H279.637V192.12C279.637 189.704 278.229 188.52 276.181 188.52ZM290.897 185.128V190.184C290.193 189.096 289.041 188.52 287.697 188.52C285.297 188.52 283.505 190.248 283.505 192.792C283.505 195.336 285.297 197.08 287.697 197.08C289.089 197.08 290.257 196.472 290.945 195.336V197H292.033V185.128H290.897ZM287.793 196.072C286.001 196.072 284.657 194.76 284.657 192.792C284.657 190.824 286.001 189.512 287.793 189.512C289.569 189.512 290.913 190.824 290.913 192.792C290.913 194.76 289.569 196.072 287.793 196.072ZM299.052 197.08C301.244 197.08 302.524 196.136 302.524 194.68C302.524 191.448 297.068 193.16 297.068 190.888C297.068 190.088 297.74 189.496 299.26 189.496C300.124 189.496 301.004 189.704 301.74 190.216L302.236 189.304C301.532 188.824 300.348 188.52 299.26 188.52C297.116 188.52 295.932 189.544 295.932 190.92C295.932 194.248 301.388 192.52 301.388 194.712C301.388 195.544 300.732 196.088 299.132 196.088C297.948 196.088 296.812 195.672 296.14 195.144L295.628 196.04C296.316 196.632 297.66 197.08 299.052 197.08ZM306.337 197.08C306.801 197.08 307.201 196.696 307.201 196.2C307.201 195.704 306.801 195.336 306.337 195.336C305.873 195.336 305.489 195.704 305.489 196.2C305.489 196.696 305.873 197.08 306.337 197.08Z" fill="#1F2326"/>
<rect x="416" y="64" width="190" height="182" fill="#FF4656"/>
<path fill-rule="evenodd" clip-rule="evenodd" d="M564.539 28.9106C564.539 32.7271 561.439 35.8211 557.616 35.8211C553.794 35.8211 550.694 32.7271 550.694 28.9106C550.694 25.0939 553.794 22 557.616 22C561.439 22 564.539 25.0939 564.539 28.9106ZM583.918 55.1702C583.918 59.7502 580.199 63.4628 575.612 63.4628C571.025 63.4628 567.305 59.7502 567.305 55.1702C567.305 50.5902 571.025 46.8776 575.612 46.8776C580.199 46.8776 583.918 50.5902 583.918 55.1702ZM542.386 60.6987C545.445 60.6987 547.924 58.2237 547.924 55.1702C547.924 52.1172 545.445 49.6417 542.386 49.6417C539.328 49.6417 536.849 52.1172 536.849 55.1702C536.849 58.2237 539.328 60.6987 542.386 60.6987ZM594.066 78.2399C599.632 85.5896 602.933 94.7435 602.933 104.667C602.933 128.892 583.263 148.529 558.998 148.529C534.733 148.529 515.063 128.892 515.063 104.667C515.063 94.7431 518.364 85.5882 523.931 78.2385L474.552 38.5864C472.706 44.115 475.382 61.2531 484.242 68.9927C488.375 72.603 492.167 75.8521 495.504 78.7123C499.321 81.9841 502.546 84.7477 505.008 86.9601V96.6349L477.865 75.903C478.787 82.8138 482.567 98.3472 490.873 105.258C496.053 109.567 500.624 112.835 503.263 114.723C504.009 115.256 504.601 115.68 505.008 115.984V127.041L487.011 111.838C486.088 121.052 493.382 139.355 503.072 146.39C509.209 150.846 519.608 159.58 530.304 168.565C540.843 177.418 551.672 186.513 559 192C566.329 186.513 577.156 177.417 587.695 168.565C598.392 159.581 608.79 150.845 614.927 146.39C624.618 139.354 631.912 121.052 630.989 111.837L612.991 127.041V115.984C614.837 114.601 620.19 110.455 626.836 104.927C634.949 98.1765 636.899 83.5139 637.845 76.3966L637.911 75.9026L612.991 96.634V86.9596C615.454 84.7472 618.677 81.9841 622.495 78.7123L622.501 78.7071C625.837 75.8479 629.627 72.6002 633.757 68.9922C642.618 61.2522 645.294 44.1141 643.448 38.5858L594.066 78.2399ZM558.999 138.097C577.349 138.097 592.224 123.246 592.224 104.927C592.224 86.607 577.349 71.7563 558.999 71.7563C540.649 71.7563 525.773 86.607 525.773 104.927C525.773 123.246 540.649 138.097 558.999 138.097Z" fill="#1F2326"/>
</svg>
