<svg width="724" height="248" viewBox="0 0 724 248" fill="none" xmlns="http://www.w3.org/2000/svg">
<path d="M1 247V13.4142L13.4176 1H722.694L722.999 247H1Z" fill="#F8F8F8" stroke="black" stroke-width="2"/>
<path d="M64.96 115.2H73.432C75.064 115.2 75.688 115.992 75.688 116.928V116.952C75.688 117.936 75.04 118.704 73.432 118.704H64.96V115.2ZM64.96 122.664H72.256C75.016 122.664 75.976 123.624 75.976 125.808V127.872C75.976 128.52 76.072 128.784 76.24 129H81.928V128.88C81.76 128.592 81.592 128.136 81.592 126.696V124.08C81.592 121.776 80.032 120.504 78.208 119.976C79.384 119.592 81.52 118.632 81.52 116.064V115.776C81.52 113.208 79.72 111.144 73.768 111.144H59.368V129H64.96V122.664ZM92.6219 118.728C95.3339 118.728 96.5819 119.544 96.9419 120.912H88.3019C88.7099 119.544 89.9099 118.728 92.5979 118.728H92.6219ZM102.27 124.44H96.9899C96.9179 124.752 96.3419 126.096 92.7899 126.096H92.7659C89.8139 126.096 88.5179 125.088 88.2059 123.576H102.342V122.688C102.342 119.544 100.95 115.728 93.3659 115.728H91.9019C84.9179 115.728 82.9499 118.92 82.9499 122.232V122.76C82.9499 126.144 85.1579 129.36 92.0459 129.36H93.4139C101.118 129.36 102.27 126.216 102.27 124.464V124.44ZM112.532 129.36C119.66 129.36 121.052 127.296 121.052 124.92V124.776C121.052 122.184 119.804 120.84 113.852 120.72L111.548 120.672C109.316 120.6 108.836 120.216 108.836 119.64V119.592C108.836 118.944 109.34 118.632 111.908 118.632H111.932C114.812 118.632 115.052 119.472 115.124 119.952H120.572V119.784C120.572 117.768 119.012 115.728 112.484 115.728H111.524C104.42 115.728 103.364 117.768 103.364 119.76V119.904C103.364 121.8 104.708 123.816 110.324 123.936L112.628 123.984C115.148 124.056 115.46 124.44 115.46 125.112V125.16C115.46 125.784 115.1 126.384 112.124 126.384H112.076C108.956 126.384 108.764 125.112 108.764 124.632H103.244V124.776C103.244 126.432 104.012 129.36 111.548 129.36H112.532ZM140.523 116.088H135.171V122.184C135.171 124.296 133.659 125.688 131.331 125.688C129.051 125.688 128.019 124.392 128.019 122.472V116.088H122.619V124.128C122.619 126.552 124.323 129.288 128.763 129.288H128.955C132.699 129.288 134.571 127.368 135.219 126.768V129H140.523V116.088ZM148.128 122.328C148.128 120.672 149.112 119.208 150.912 119.208H150.936C152.952 119.208 153.672 120.648 153.672 122.304H158.832V121.56C158.832 118.224 157.32 115.8 153.576 115.8H153.312C150.096 115.8 148.536 117.648 148.08 118.368V116.088H142.776V129H148.128V122.328ZM165.777 122.328C165.777 120.672 166.761 119.208 168.561 119.208H168.585C170.601 119.208 171.321 120.648 171.321 122.304H176.481V121.56C176.481 118.224 174.969 115.8 171.225 115.8H170.961C167.745 115.8 166.185 117.648 165.729 118.368V116.088H160.425V129H165.777V122.328ZM187.145 118.728C189.857 118.728 191.105 119.544 191.465 120.912H182.825C183.233 119.544 184.433 118.728 187.121 118.728H187.145ZM196.793 124.44H191.513C191.441 124.752 190.865 126.096 187.313 126.096H187.289C184.337 126.096 183.041 125.088 182.729 123.576H196.865V122.688C196.865 119.544 195.473 115.728 187.889 115.728H186.425C179.441 115.728 177.473 118.92 177.473 122.232V122.76C177.473 126.144 179.681 129.36 186.569 129.36H187.937C195.641 129.36 196.793 126.216 196.793 124.464V124.44ZM208.207 129.36C216.463 129.36 217.303 125.4 217.303 123.6V123.552H211.807C211.687 124.056 211.159 125.928 207.535 125.928H207.463C204.367 125.928 203.359 124.2 203.359 122.472V122.304C203.359 120.672 204.343 119.112 207.463 119.112H207.535C211.207 119.112 211.687 120.936 211.807 121.44H217.303V121.368C217.303 119.64 216.295 115.728 208.231 115.728H206.863C199.495 115.728 197.887 119.352 197.887 122.232V122.712C197.887 125.592 199.519 129.36 206.887 129.36H208.207ZM228.43 129V125.448H226.966C226.03 125.448 225.886 125.016 225.886 124.32V119.64H228.43V116.088H225.886V112.32H220.606V116.088H218.086V119.64H220.606V125.328C220.606 127.56 221.47 129 223.798 129H228.43ZM235.597 111.144H230.245V114.84H235.597V111.144ZM235.597 116.088H230.245V129H235.597V116.088ZM248.23 129.36C256.198 129.36 257.47 125.664 257.47 122.688V122.256C257.47 119.328 256.102 115.728 248.23 115.728H246.526C239.038 115.728 237.262 119.28 237.262 122.256V122.688C237.262 125.664 239.062 129.36 246.55 129.36H248.23ZM247.39 125.88C243.742 125.88 242.734 124.056 242.734 122.544V122.424C242.734 120.792 243.742 119.16 247.39 119.16H247.414C251.014 119.16 252.046 120.816 252.046 122.424V122.544C252.046 124.056 251.038 125.88 247.39 125.88ZM259.12 129H264.472V122.904C264.472 120.792 266.032 119.4 268.432 119.4C270.808 119.4 271.888 120.624 271.888 122.616V129H277.288V120.84C277.288 118.344 275.512 115.8 271 115.8H270.832C266.992 115.8 265.072 117.648 264.424 118.296V116.088H259.12V129Z" fill="black"/>
<path d="M79.92 72.44C95.16 72.44 98.2 62.28 98.2 56.68V42.24H88.88V56.12C88.88 59.96 87.12 64.72 79.12 64.72C71 64.72 69.28 59.96 69.28 56.12V42.24H59.92V56.68C59.92 62.28 62.52 72.44 78.48 72.44H79.92ZM102.389 42.24V72H132.389V64.6H111.709V42.24H102.389ZM139.381 72H148.781V49.28H161.621V42.24H126.581V49.28H139.381V72ZM174.327 42.24H165.007V72H174.327V42.24ZM178.874 72H187.834V51.4L199.554 72H204.554L216.274 51.4V72H225.474V42.24H212.714L202.394 60.76L192.114 42.24H178.874V72ZM253.886 59.84H242.606L248.126 48.68L253.886 59.84ZM260.126 72H270.166L254.246 42.24H242.166L227.126 72H236.606L239.286 66.56H257.326L260.126 72ZM277.74 72H287.14V49.28H299.98V42.24H264.94V49.28H277.74V72ZM303.366 42.24V72H335.126V65.08H312.566V60.2H334.206V53.4H312.566V49H334.726V42.24H303.366Z" fill="#C4C4C4"/>
<path d="M62 177H63.184V166.824H67.12V165.8H58.064V166.824H62V177ZM72.8468 168.52C71.5188 168.52 70.2708 168.936 69.4228 169.656L69.9348 170.504C70.6228 169.896 71.6468 169.512 72.7348 169.512C74.3028 169.512 75.1188 170.296 75.1188 171.736V172.248H72.4468C70.0308 172.248 69.1988 173.336 69.1988 174.632C69.1988 176.088 70.3668 177.08 72.2708 177.08C73.6628 177.08 74.6548 176.552 75.1668 175.688V177H76.2548V171.784C76.2548 169.608 75.0228 168.52 72.8468 168.52ZM72.4468 176.184C71.1028 176.184 70.3188 175.576 70.3188 174.6C70.3188 173.736 70.8468 173.096 72.4788 173.096H75.1188V174.472C74.6708 175.576 73.7268 176.184 72.4468 176.184ZM82.0283 170.232V168.584H80.9403V177H82.0763V172.712C82.0763 170.728 83.1483 169.608 84.9083 169.608C84.9883 169.608 85.0843 169.624 85.1803 169.624V168.52C83.6283 168.52 82.5563 169.112 82.0283 170.232ZM95.463 168.584V170.2C94.759 169.096 93.543 168.52 92.135 168.52C89.735 168.52 87.911 170.168 87.911 172.584C87.911 175 89.735 176.68 92.135 176.68C93.511 176.68 94.711 176.12 95.415 175.048V176.12C95.415 178.2 94.439 179.176 92.311 179.176C91.015 179.176 89.799 178.744 88.999 178.024L88.423 178.888C89.303 179.72 90.807 180.184 92.343 180.184C95.127 180.184 96.551 178.872 96.551 175.976V168.584H95.463ZM92.247 175.672C90.391 175.672 89.063 174.408 89.063 172.584C89.063 170.76 90.391 169.512 92.247 169.512C94.103 169.512 95.447 170.76 95.447 172.584C95.447 174.408 94.103 175.672 92.247 175.672ZM108.672 172.792C108.672 170.264 106.96 168.52 104.592 168.52C102.224 168.52 100.48 170.296 100.48 172.792C100.48 175.288 102.272 177.08 104.896 177.08C106.224 177.08 107.392 176.6 108.144 175.704L107.504 174.968C106.864 175.704 105.952 176.072 104.928 176.072C103.088 176.072 101.744 174.904 101.616 173.144H108.656C108.656 173.016 108.672 172.888 108.672 172.792ZM104.592 169.496C106.24 169.496 107.44 170.648 107.584 172.296H101.616C101.76 170.648 102.96 169.496 104.592 169.496ZM116.616 175.672C116.296 175.96 115.832 176.104 115.368 176.104C114.424 176.104 113.912 175.56 113.912 174.568V169.544H116.472V168.584H113.912V166.744H112.776V168.584H111.272V169.544H112.776V174.632C112.776 176.184 113.656 177.08 115.24 177.08C115.896 177.08 116.568 176.888 117.016 176.488L116.616 175.672ZM129.415 168.52C128.087 168.52 126.839 168.936 125.991 169.656L126.503 170.504C127.191 169.896 128.215 169.512 129.303 169.512C130.871 169.512 131.687 170.296 131.687 171.736V172.248H129.015C126.599 172.248 125.767 173.336 125.767 174.632C125.767 176.088 126.935 177.08 128.839 177.08C130.231 177.08 131.223 176.552 131.735 175.688V177H132.823V171.784C132.823 169.608 131.591 168.52 129.415 168.52ZM129.015 176.184C127.671 176.184 126.887 175.576 126.887 174.6C126.887 173.736 127.415 173.096 129.047 173.096H131.687V174.472C131.239 175.576 130.295 176.184 129.015 176.184ZM146.081 166.008C146.561 166.008 147.009 166.152 147.329 166.424L147.713 165.576C147.297 165.224 146.657 165.048 146.033 165.048C144.385 165.048 143.489 166.04 143.489 167.544V168.584H141.985V169.544H143.489V177H144.625V169.544H147.185V168.584H144.593V167.592C144.593 166.552 145.105 166.008 146.081 166.008ZM152.688 170.232V168.584H151.6V177H152.736V172.712C152.736 170.728 153.808 169.608 155.568 169.608C155.648 169.608 155.744 169.624 155.84 169.624V168.52C154.288 168.52 153.216 169.112 152.688 170.232ZM160.072 166.744C160.552 166.744 160.904 166.376 160.904 165.912C160.904 165.48 160.536 165.128 160.072 165.128C159.608 165.128 159.24 165.496 159.24 165.928C159.24 166.376 159.608 166.744 160.072 166.744ZM159.496 177H160.632V168.584H159.496V177ZM172.737 172.792C172.737 170.264 171.025 168.52 168.657 168.52C166.289 168.52 164.545 170.296 164.545 172.792C164.545 175.288 166.337 177.08 168.961 177.08C170.289 177.08 171.457 176.6 172.209 175.704L171.569 174.968C170.929 175.704 170.017 176.072 168.993 176.072C167.153 176.072 165.809 174.904 165.681 173.144H172.721C172.721 173.016 172.737 172.888 172.737 172.792ZM168.657 169.496C170.305 169.496 171.505 170.648 171.649 172.296H165.681C165.825 170.648 167.025 169.496 168.657 169.496ZM180.938 168.52C179.482 168.52 178.346 169.112 177.738 170.136V168.584H176.65V177H177.786V172.584C177.786 170.664 178.922 169.544 180.73 169.544C182.33 169.544 183.258 170.456 183.258 172.232V177H184.394V172.12C184.394 169.704 182.986 168.52 180.938 168.52ZM195.653 165.128V170.184C194.949 169.096 193.797 168.52 192.453 168.52C190.053 168.52 188.261 170.248 188.261 172.792C188.261 175.336 190.053 177.08 192.453 177.08C193.845 177.08 195.013 176.472 195.701 175.336V177H196.789V165.128H195.653ZM192.549 176.072C190.757 176.072 189.413 174.76 189.413 172.792C189.413 170.824 190.757 169.512 192.549 169.512C194.325 169.512 195.669 170.824 195.669 172.792C195.669 174.76 194.325 176.072 192.549 176.072ZM201.553 177H202.689V165.128H201.553V177ZM213.402 168.584L210.234 175.736L207.066 168.584H205.882L209.642 176.984L209.274 177.8C208.794 178.856 208.282 179.208 207.53 179.208C206.922 179.208 206.41 178.984 205.994 178.568L205.466 179.416C205.978 179.928 206.73 180.184 207.514 180.184C208.714 180.184 209.61 179.656 210.314 178.008L214.522 168.584H213.402ZM226.997 177.08C228.421 177.08 229.621 176.504 230.293 175.416L229.445 174.84C228.869 175.688 227.973 176.072 226.997 176.072C225.157 176.072 223.813 174.776 223.813 172.792C223.813 170.824 225.157 169.512 226.997 169.512C227.973 169.512 228.869 169.912 229.445 170.76L230.293 170.184C229.621 169.08 228.421 168.52 226.997 168.52C224.485 168.52 222.661 170.28 222.661 172.792C222.661 175.304 224.485 177.08 226.997 177.08ZM237.424 177.08C239.888 177.08 241.696 175.288 241.696 172.792C241.696 170.296 239.888 168.52 237.424 168.52C234.96 168.52 233.136 170.296 233.136 172.792C233.136 175.288 234.96 177.08 237.424 177.08ZM237.424 176.072C235.632 176.072 234.288 174.76 234.288 172.792C234.288 170.824 235.632 169.512 237.424 169.512C239.216 169.512 240.544 170.824 240.544 172.792C240.544 174.76 239.216 176.072 237.424 176.072ZM246.703 170.232V168.584H245.615V177H246.751V172.712C246.751 170.728 247.823 169.608 249.583 169.608C249.663 169.608 249.759 169.624 249.855 169.624V168.52C248.303 168.52 247.231 169.112 246.703 170.232ZM257.848 168.52C256.456 168.52 255.288 169.128 254.6 170.248V168.584H253.512V180.104H254.648V175.416C255.352 176.504 256.504 177.08 257.848 177.08C260.248 177.08 262.04 175.352 262.04 172.792C262.04 170.248 260.248 168.52 257.848 168.52ZM257.768 176.072C255.976 176.072 254.632 174.76 254.632 172.792C254.632 170.84 255.976 169.512 257.768 169.512C259.544 169.512 260.904 170.84 260.904 172.792C260.904 174.76 259.544 176.072 257.768 176.072ZM268.212 177.08C270.404 177.08 271.684 176.136 271.684 174.68C271.684 171.448 266.228 173.16 266.228 170.888C266.228 170.088 266.9 169.496 268.42 169.496C269.284 169.496 270.164 169.704 270.9 170.216L271.396 169.304C270.692 168.824 269.508 168.52 268.42 168.52C266.276 168.52 265.092 169.544 265.092 170.92C265.092 174.248 270.548 172.52 270.548 174.712C270.548 175.544 269.892 176.088 268.292 176.088C267.108 176.088 265.972 175.672 265.3 175.144L264.788 176.04C265.476 176.632 266.82 177.08 268.212 177.08ZM282.728 172.792C282.728 170.264 281.016 168.52 278.648 168.52C276.28 168.52 274.536 170.296 274.536 172.792C274.536 175.288 276.328 177.08 278.952 177.08C280.28 177.08 281.448 176.6 282.2 175.704L281.56 174.968C280.92 175.704 280.008 176.072 278.984 176.072C277.144 176.072 275.8 174.904 275.672 173.144H282.712C282.712 173.016 282.728 172.888 282.728 172.792ZM278.648 169.496C280.296 169.496 281.496 170.648 281.64 172.296H275.672C275.816 170.648 277.016 169.496 278.648 169.496ZM286.752 177.08C287.216 177.08 287.616 176.696 287.616 176.2C287.616 175.704 287.216 175.336 286.752 175.336C286.288 175.336 285.904 175.704 285.904 176.2C285.904 176.696 286.288 177.08 286.752 177.08ZM306.026 177H307.274L302.154 165.8H300.986L295.866 177H297.098L298.442 174.008H304.682L306.026 177ZM298.874 173.048L301.562 167.032L304.25 173.048H298.874ZM313.271 166.008C313.751 166.008 314.199 166.152 314.519 166.424L314.903 165.576C314.487 165.224 313.847 165.048 313.223 165.048C311.575 165.048 310.679 166.04 310.679 167.544V168.584H309.175V169.544H310.679V177H311.815V169.544H314.375V168.584H311.783V167.592C311.783 166.552 312.295 166.008 313.271 166.008ZM321.541 175.672C321.221 175.96 320.757 176.104 320.293 176.104C319.349 176.104 318.837 175.56 318.837 174.568V169.544H321.397V168.584H318.837V166.744H317.701V168.584H316.197V169.544H317.701V174.632C317.701 176.184 318.581 177.08 320.165 177.08C320.821 177.08 321.493 176.888 321.941 176.488L321.541 175.672ZM332.656 172.792C332.656 170.264 330.944 168.52 328.576 168.52C326.208 168.52 324.464 170.296 324.464 172.792C324.464 175.288 326.256 177.08 328.88 177.08C330.208 177.08 331.376 176.6 332.128 175.704L331.488 174.968C330.848 175.704 329.936 176.072 328.912 176.072C327.072 176.072 325.728 174.904 325.6 173.144H332.64C332.64 173.016 332.656 172.888 332.656 172.792ZM328.576 169.496C330.224 169.496 331.424 170.648 331.568 172.296H325.6C325.744 170.648 326.944 169.496 328.576 169.496ZM337.656 170.232V168.584H336.568V177H337.704V172.712C337.704 170.728 338.776 169.608 340.536 169.608C340.616 169.608 340.712 169.624 340.808 169.624V168.52C339.256 168.52 338.184 169.112 337.656 170.232ZM353.322 168.52C351.994 168.52 350.746 168.936 349.898 169.656L350.41 170.504C351.098 169.896 352.122 169.512 353.21 169.512C354.778 169.512 355.594 170.296 355.594 171.736V172.248H352.922C350.506 172.248 349.674 173.336 349.674 174.632C349.674 176.088 350.842 177.08 352.746 177.08C354.138 177.08 355.13 176.552 355.642 175.688V177H356.73V171.784C356.73 169.608 355.498 168.52 353.322 168.52ZM352.922 176.184C351.578 176.184 350.794 175.576 350.794 174.6C350.794 173.736 351.322 173.096 352.954 173.096H355.594V174.472C355.146 175.576 354.202 176.184 352.922 176.184ZM61.84 197.08C64.032 197.08 65.312 196.136 65.312 194.68C65.312 191.448 59.856 193.16 59.856 190.888C59.856 190.088 60.528 189.496 62.048 189.496C62.912 189.496 63.792 189.704 64.528 190.216L65.024 189.304C64.32 188.824 63.136 188.52 62.048 188.52C59.904 188.52 58.72 189.544 58.72 190.92C58.72 194.248 64.176 192.52 64.176 194.712C64.176 195.544 63.52 196.088 61.92 196.088C60.736 196.088 59.6 195.672 58.928 195.144L58.416 196.04C59.104 196.632 60.448 197.08 61.84 197.08ZM73.3001 188.52C71.8761 188.52 70.7721 189.08 70.1481 190.056V185.128H69.0121V197H70.1481V192.584C70.1481 190.664 71.2841 189.544 73.0921 189.544C74.6921 189.544 75.6201 190.456 75.6201 192.232V197H76.7561V192.12C76.7561 189.704 75.3481 188.52 73.3001 188.52ZM84.9115 197.08C87.3755 197.08 89.1835 195.288 89.1835 192.792C89.1835 190.296 87.3755 188.52 84.9115 188.52C82.4475 188.52 80.6235 190.296 80.6235 192.792C80.6235 195.288 82.4475 197.08 84.9115 197.08ZM84.9115 196.072C83.1195 196.072 81.7755 194.76 81.7755 192.792C81.7755 190.824 83.1195 189.512 84.9115 189.512C86.7035 189.512 88.0315 190.824 88.0315 192.792C88.0315 194.76 86.7035 196.072 84.9115 196.072ZM94.1907 190.232V188.584H93.1027V197H94.2387V192.712C94.2387 190.728 95.3107 189.608 97.0707 189.608C97.1507 189.608 97.2467 189.624 97.3427 189.624V188.52C95.7907 188.52 94.7187 189.112 94.1907 190.232ZM105.391 195.672C105.071 195.96 104.607 196.104 104.143 196.104C103.199 196.104 102.687 195.56 102.687 194.568V189.544H105.247V188.584H102.687V186.744H101.551V188.584H100.047V189.544H101.551V194.632C101.551 196.184 102.431 197.08 104.015 197.08C104.671 197.08 105.343 196.888 105.791 196.488L105.391 195.672ZM121.79 185.128V190.184C121.086 189.096 119.934 188.52 118.59 188.52C116.19 188.52 114.398 190.248 114.398 192.792C114.398 195.336 116.19 197.08 118.59 197.08C119.982 197.08 121.15 196.472 121.838 195.336V197H122.926V185.128H121.79ZM118.686 196.072C116.894 196.072 115.55 194.76 115.55 192.792C115.55 190.824 116.894 189.512 118.686 189.512C120.462 189.512 121.806 190.824 121.806 192.792C121.806 194.76 120.462 196.072 118.686 196.072ZM135.034 192.792C135.034 190.264 133.322 188.52 130.954 188.52C128.586 188.52 126.842 190.296 126.842 192.792C126.842 195.288 128.634 197.08 131.258 197.08C132.586 197.08 133.754 196.6 134.506 195.704L133.866 194.968C133.226 195.704 132.314 196.072 131.29 196.072C129.45 196.072 128.106 194.904 127.978 193.144H135.018C135.018 193.016 135.034 192.888 135.034 192.792ZM130.954 189.496C132.602 189.496 133.802 190.648 133.946 192.296H127.978C128.122 190.648 129.322 189.496 130.954 189.496ZM138.947 197H140.083V185.128H138.947V197ZM147.787 188.52C146.459 188.52 145.211 188.936 144.363 189.656L144.875 190.504C145.563 189.896 146.587 189.512 147.675 189.512C149.243 189.512 150.059 190.296 150.059 191.736V192.248H147.387C144.971 192.248 144.139 193.336 144.139 194.632C144.139 196.088 145.307 197.08 147.211 197.08C148.603 197.08 149.595 196.552 150.107 195.688V197H151.195V191.784C151.195 189.608 149.963 188.52 147.787 188.52ZM147.387 196.184C146.043 196.184 145.259 195.576 145.259 194.6C145.259 193.736 145.787 193.096 147.419 193.096H150.059V194.472C149.611 195.576 148.667 196.184 147.387 196.184ZM161.677 188.584L158.509 195.736L155.341 188.584H154.157L157.917 196.984L157.549 197.8C157.069 198.856 156.557 199.208 155.805 199.208C155.197 199.208 154.685 198.984 154.269 198.568L153.741 199.416C154.253 199.928 155.005 200.184 155.789 200.184C156.989 200.184 157.885 199.656 158.589 198.008L162.797 188.584H161.677ZM165.578 195.336C165.098 195.336 164.73 195.704 164.73 196.2C164.73 196.616 164.97 196.92 165.306 197.016L164.762 199.336H165.53L166.202 197.128C166.362 196.68 166.426 196.472 166.426 196.2C166.426 195.72 166.074 195.336 165.578 195.336ZM177.316 190.232V188.584H176.228V197H177.364V192.712C177.364 190.728 178.436 189.608 180.196 189.608C180.276 189.608 180.372 189.624 180.468 189.624V188.52C178.916 188.52 177.844 189.112 177.316 190.232ZM191.391 192.792C191.391 190.264 189.679 188.52 187.311 188.52C184.943 188.52 183.199 190.296 183.199 192.792C183.199 195.288 184.991 197.08 187.615 197.08C188.943 197.08 190.111 196.6 190.863 195.704L190.223 194.968C189.583 195.704 188.671 196.072 187.647 196.072C185.807 196.072 184.463 194.904 184.335 193.144H191.375C191.375 193.016 191.391 192.888 191.391 192.792ZM187.311 189.496C188.959 189.496 190.159 190.648 190.303 192.296H184.335C184.479 190.648 185.679 189.496 187.311 189.496ZM201.099 188.584L197.915 195.752L194.763 188.584H193.579L197.307 197H198.475L202.219 188.584H201.099ZM205.994 186.744C206.474 186.744 206.826 186.376 206.826 185.912C206.826 185.48 206.458 185.128 205.994 185.128C205.53 185.128 205.162 185.496 205.162 185.928C205.162 186.376 205.53 186.744 205.994 186.744ZM205.418 197H206.554V188.584H205.418V197ZM217.267 188.584L214.083 195.752L210.931 188.584H209.747L213.475 197H214.643L218.387 188.584H217.267ZM228.697 192.792C228.697 190.264 226.985 188.52 224.617 188.52C222.249 188.52 220.505 190.296 220.505 192.792C220.505 195.288 222.297 197.08 224.921 197.08C226.249 197.08 227.417 196.6 228.169 195.704L227.529 194.968C226.889 195.704 225.977 196.072 224.953 196.072C223.113 196.072 221.769 194.904 221.641 193.144H228.681C228.681 193.016 228.697 192.888 228.697 192.792ZM224.617 189.496C226.265 189.496 227.465 190.648 227.609 192.296H221.641C221.785 190.648 222.985 189.496 224.617 189.496ZM242.429 195.672C242.109 195.96 241.645 196.104 241.181 196.104C240.237 196.104 239.725 195.56 239.725 194.568V189.544H242.285V188.584H239.725V186.744H238.589V188.584H237.085V189.544H238.589V194.632C238.589 196.184 239.469 197.08 241.053 197.08C241.709 197.08 242.381 196.888 242.829 196.488L242.429 195.672ZM250.785 188.52C249.361 188.52 248.257 189.08 247.633 190.056V185.128H246.497V197H247.633V192.584C247.633 190.664 248.769 189.544 250.577 189.544C252.177 189.544 253.105 190.456 253.105 192.232V197H254.241V192.12C254.241 189.704 252.833 188.52 250.785 188.52ZM266.3 192.792C266.3 190.264 264.588 188.52 262.22 188.52C259.852 188.52 258.108 190.296 258.108 192.792C258.108 195.288 259.9 197.08 262.524 197.08C263.852 197.08 265.02 196.6 265.772 195.704L265.132 194.968C264.492 195.704 263.58 196.072 262.556 196.072C260.716 196.072 259.372 194.904 259.244 193.144H266.284C266.284 193.016 266.3 192.888 266.3 192.792ZM262.22 189.496C263.868 189.496 265.068 190.648 265.212 192.296H259.244C259.388 190.648 260.588 189.496 262.22 189.496ZM280.708 188.52C279.188 188.52 277.988 189.208 277.38 190.296C276.868 189.112 275.78 188.52 274.388 188.52C272.98 188.52 271.892 189.112 271.3 190.12V188.584H270.212V197H271.348V192.584C271.348 190.664 272.452 189.544 274.164 189.544C275.7 189.544 276.596 190.456 276.596 192.232V197H277.732V192.584C277.732 190.664 278.82 189.544 280.548 189.544C282.068 189.544 282.964 190.456 282.964 192.232V197H284.1V192.12C284.1 189.704 282.756 188.52 280.708 188.52ZM305.88 188.584L303.208 195.736L300.52 188.584H299.544L296.84 195.736L294.2 188.584H293.112L296.28 197H297.352L300.008 190.104L302.664 197H303.736L306.92 188.584H305.88ZM310.807 186.744C311.287 186.744 311.639 186.376 311.639 185.912C311.639 185.48 311.271 185.128 310.807 185.128C310.343 185.128 309.975 185.496 309.975 185.928C309.975 186.376 310.343 186.744 310.807 186.744ZM310.231 197H311.367V188.584H310.231V197ZM320.16 195.672C319.84 195.96 319.376 196.104 318.912 196.104C317.968 196.104 317.456 195.56 317.456 194.568V189.544H320.016V188.584H317.456V186.744H316.32V188.584H314.816V189.544H316.32V194.632C316.32 196.184 317.2 197.08 318.784 197.08C319.44 197.08 320.112 196.888 320.56 196.488L320.16 195.672ZM328.516 188.52C327.092 188.52 325.988 189.08 325.364 190.056V185.128H324.228V197H325.364V192.584C325.364 190.664 326.5 189.544 328.308 189.544C329.908 189.544 330.836 190.456 330.836 192.232V197H331.972V192.12C331.972 189.704 330.564 188.52 328.516 188.52ZM345.227 186.008C345.707 186.008 346.155 186.152 346.475 186.424L346.859 185.576C346.443 185.224 345.803 185.048 345.179 185.048C343.531 185.048 342.635 186.04 342.635 187.544V188.584H341.131V189.544H342.635V197H343.771V189.544H346.331V188.584H343.739V187.592C343.739 186.552 344.251 186.008 345.227 186.008ZM355.913 188.584V193C355.913 194.92 354.809 196.056 353.049 196.056C351.449 196.056 350.521 195.144 350.521 193.352V188.584H349.385V193.464C349.385 195.88 350.793 197.08 352.937 197.08C354.281 197.08 355.369 196.488 355.961 195.464V197H357.049V188.584H355.913ZM361.831 197H362.967V185.128H361.831V197ZM367.728 197H368.864V185.128H367.728V197ZM63.872 208.52C62.448 208.52 61.344 209.08 60.72 210.056V205.128H59.584V217H60.72V212.584C60.72 210.664 61.856 209.544 63.664 209.544C65.264 209.544 66.192 210.456 66.192 212.232V217H67.328V212.12C67.328 209.704 65.92 208.52 63.872 208.52ZM79.3874 212.792C79.3874 210.264 77.6754 208.52 75.3074 208.52C72.9394 208.52 71.1954 210.296 71.1954 212.792C71.1954 215.288 72.9874 217.08 75.6114 217.08C76.9394 217.08 78.1074 216.6 78.8594 215.704L78.2194 214.968C77.5794 215.704 76.6674 216.072 75.6434 216.072C73.8034 216.072 72.4594 214.904 72.3314 213.144H79.3714C79.3714 213.016 79.3874 212.888 79.3874 212.792ZM75.3074 209.496C76.9554 209.496 78.1554 210.648 78.2994 212.296H72.3314C72.4754 210.648 73.6754 209.496 75.3074 209.496ZM86.0093 208.52C84.6813 208.52 83.4333 208.936 82.5853 209.656L83.0973 210.504C83.7853 209.896 84.8093 209.512 85.8973 209.512C87.4653 209.512 88.2813 210.296 88.2813 211.736V212.248H85.6093C83.1933 212.248 82.3613 213.336 82.3613 214.632C82.3613 216.088 83.5293 217.08 85.4333 217.08C86.8253 217.08 87.8173 216.552 88.3293 215.688V217H89.4173V211.784C89.4173 209.608 88.1853 208.52 86.0093 208.52ZM85.6093 216.184C84.2653 216.184 83.4813 215.576 83.4813 214.6C83.4813 213.736 84.0093 213.096 85.6413 213.096H88.2813V214.472C87.8333 215.576 86.8893 216.184 85.6093 216.184ZM94.1027 217H95.2387V205.128H94.1027V217ZM104.063 215.672C103.743 215.96 103.279 216.104 102.815 216.104C101.871 216.104 101.359 215.56 101.359 214.568V209.544H103.919V208.584H101.359V206.744H100.223V208.584H98.7189V209.544H100.223V214.632C100.223 216.184 101.103 217.08 102.687 217.08C103.343 217.08 104.015 216.888 104.463 216.488L104.063 215.672ZM112.419 208.52C110.995 208.52 109.891 209.08 109.267 210.056V205.128H108.131V217H109.267V212.584C109.267 210.664 110.403 209.544 112.211 209.544C113.811 209.544 114.739 210.456 114.739 212.232V217H115.875V212.12C115.875 209.704 114.467 208.52 112.419 208.52ZM120.671 217.08C121.135 217.08 121.535 216.696 121.535 216.2C121.535 215.704 121.135 215.336 120.671 215.336C120.207 215.336 119.823 215.704 119.823 216.2C119.823 216.696 120.207 217.08 120.671 217.08Z" fill="#1F2326"/>
<rect x="416" y="64" width="190" height="182" fill="#FF4656"/>
<path fill-rule="evenodd" clip-rule="evenodd" d="M491.998 113.641L568.5 192L645.003 113.641C662.478 95.7402 662.311 67.4314 644.623 49.7326C626.325 31.4225 596.301 31.4225 578.002 49.7326L568.5 59.2411L558.998 49.7326C540.699 31.4225 510.675 31.4225 492.377 49.7326C474.689 67.4314 474.521 95.7402 491.998 113.641ZM606.373 105.309C595.825 104.796 586.882 100.781 579.545 93.2629C572.209 85.7454 568.54 76.7778 568.54 66.3608C568.54 76.7778 564.859 85.7454 557.495 93.2629C550.132 100.781 541.176 104.796 530.628 105.309C537.573 105.617 543.944 107.555 549.741 111.121C555.537 114.687 560.119 119.408 563.487 125.284C566.856 131.16 568.54 137.536 568.54 144.412C568.54 133.944 572.209 124.938 579.545 117.394C586.882 109.851 595.825 105.823 606.373 105.309Z" fill="#1F2326"/>
</svg>
